<svg width="233" height="77" viewBox="0 0 233 77" fill="none" xmlns="http://www.w3.org/2000/svg">
<path d="M46.1329 4.79999L46.1556 5.22709C46.1642 5.46197 46.1832 6.17031 46.1991 6.80324L46.2199 7.95229L46.8601 7.28474C47.5995 6.50779 47.6987 6.47627 47.695 7.01092C47.695 7.22787 47.3887 7.73657 47.0285 8.1439C46.4454 8.79599 46.3639 9.00182 46.329 9.86777C46.3014 10.5217 46.3535 10.8141 46.4748 10.7381C46.5758 10.6762 46.6536 10.51 46.6536 10.3715C46.6536 10.2331 46.732 10.12 46.827 10.12C46.9219 10.12 47.001 9.81461 47.001 9.44005C47.001 8.66248 47.4384 8.11917 47.7109 8.55308C47.7992 8.69153 47.8335 8.89736 47.7924 9.01294C47.7005 9.26822 48.2004 9.10195 48.5355 8.7657C48.6617 8.64208 48.8651 8.54133 48.9919 8.54133C49.4605 8.54133 49.3839 9.03581 48.813 9.69594C48.1324 10.4822 48.0963 10.6385 48.5471 10.7578C48.7677 10.8159 48.8442 10.9519 48.7854 11.1794C48.688 11.5558 48.2231 11.6232 47.907 11.303C47.6705 11.0644 47.6619 11.0774 47.624 11.7357C47.5909 12.2845 47.624 12.2975 48.2157 11.9545C48.7971 11.6188 48.9104 11.6269 48.9104 12.0255C48.9104 12.211 48.6568 12.5633 48.3462 12.8081C47.9223 13.1425 47.8757 13.2308 48.1514 13.1585C48.3897 13.0967 48.5545 13.1585 48.6219 13.339C48.7713 13.7321 48.8926 13.6994 50.0486 12.9397C50.6164 12.5689 51.1665 12.2919 51.2688 12.3321C51.6315 12.4718 51.4011 13.14 50.8958 13.4212L50.3855 13.7L50.8523 13.755C51.1059 13.7859 51.3558 13.9194 51.4036 14.0504C51.501 14.3063 51.0667 14.5573 50.8063 14.3953C50.7199 14.3409 50.6434 14.3805 50.6434 14.4831C50.6434 14.5857 50.5062 14.6722 50.3371 14.6797C50.1165 14.6902 50.1012 14.7186 50.2758 14.7897C50.4504 14.8608 50.4235 14.9621 50.1178 15.1945L49.7116 15.5005L50.4369 15.6241C51.1855 15.7514 51.3558 16.0333 50.9092 16.4066C50.7408 16.5475 50.5637 16.5618 50.3677 16.4505C50.0394 16.2651 49.4237 16.3695 49.4237 16.6094C49.4237 16.6947 49.2675 16.7682 49.0764 16.7682C48.8853 16.7682 48.7291 16.6891 48.7291 16.5927C48.7291 16.4962 48.5539 16.4202 48.3388 16.4233L47.948 16.4289L48.3768 16.7843C48.7101 17.0643 48.7517 17.1731 48.5661 17.288C48.3058 17.4506 47.8561 17.3319 47.6338 17.0408C47.5523 16.9357 47.5315 17.0674 47.5903 17.3362C47.6773 17.7368 47.6374 17.8177 47.3452 17.8177C47.1523 17.8177 46.9893 17.7195 46.9826 17.5989C46.9722 17.4494 46.9391 17.4586 46.8729 17.6261C46.8037 17.8054 46.7149 17.7565 46.5538 17.4512L46.3314 17.0297L46.1146 17.5112C45.9921 17.7757 45.9516 18.0483 46.0227 18.1188C46.0937 18.1892 46.7137 18.2751 47.4059 18.3104C48.5618 18.3722 48.7284 18.3339 49.4942 17.8449C50.2599 17.356 50.8112 17.2769 50.8112 17.6533C50.8112 17.7362 50.5962 17.9296 50.334 18.0804L49.8568 18.3542L50.4645 18.2393C51.0648 18.128 52.0768 17.6026 52.5191 17.1663C52.6772 17.0303 52.8757 16.9513 53.0833 16.9419C53.4373 16.9419 53.5298 17.2806 53.2517 17.56C53.1476 17.6651 53.4153 17.7497 53.9789 17.7844C54.4689 17.8146 54.9388 17.8789 55.0154 17.9265C55.5863 18.2825 54.1786 18.9285 53.1598 18.7801L52.4603 18.6818L52.9503 18.9612C53.2474 19.1293 53.4208 19.3574 53.3847 19.5361C53.3014 19.9632 52.5516 19.8198 52.0725 19.2839C51.8502 19.0366 51.5482 18.8704 51.3779 18.913C51.1383 18.9705 51.1696 19.0286 51.5359 19.1813C52.1258 19.4285 52.3047 19.7159 51.9476 19.8538C51.7926 19.9156 51.7025 20.0639 51.7528 20.1888C51.772 20.254 51.7651 20.3243 51.7336 20.3845C51.7022 20.4447 51.6485 20.49 51.5843 20.5108C51.4477 20.5633 51.3344 20.5386 51.3344 20.4564C51.3344 20.313 50.7738 20.0676 50.3542 20.0237C50.2446 20.0114 49.9897 19.8507 49.79 19.6683C49.5903 19.486 49.4274 19.3951 49.4274 19.465C49.4274 19.6473 49.8072 20.0046 50.2568 20.2481C50.47 20.3637 50.6421 20.5355 50.6421 20.6313C50.6421 20.9626 50.1074 21.0133 49.7796 20.7141C49.4672 20.4267 49.4568 20.4304 49.5469 20.776C49.6786 21.2877 49.3233 21.2371 48.9723 20.6937C48.7517 20.3556 48.6427 20.3019 48.5312 20.4749C48.4087 20.6641 48.3615 20.6604 48.2396 20.47C48.1563 20.3421 47.9413 20.2561 47.7624 20.279C47.0616 20.368 46.1415 19.7376 46.1133 19.146C46.098 18.8271 46.0809 18.837 45.9712 19.2177C45.8689 19.5781 45.9541 19.7536 46.4662 20.219C46.8062 20.5281 47.5688 21.0374 48.1581 21.3508L49.235 21.9299L50.07 21.5096C50.5282 21.2785 51.0023 21.0714 51.1218 21.0485C51.4311 20.9867 51.3895 21.3292 51.0348 21.7495C50.7628 22.0752 50.7628 22.0839 51.0299 21.8731C51.1929 21.7495 51.3926 21.6877 51.474 21.7365C51.5555 21.7853 51.8416 21.7173 52.1093 21.577C52.7482 21.2426 52.9479 21.2599 52.8297 21.6333C52.7537 21.8805 52.8352 21.9343 53.2536 21.9219C53.5396 21.9133 53.8141 21.8601 53.8662 21.8082C54.0781 21.5943 54.6368 21.9083 54.6368 22.2408C54.6368 22.5085 54.5516 22.5703 54.2741 22.4967C53.925 22.4053 53.9231 22.4139 54.2129 22.7384C54.5265 23.0883 54.4763 23.1359 53.8171 23.0833C53.5145 23.0586 53.4496 23.1167 53.5409 23.351C53.6346 23.5982 53.574 23.6384 53.2144 23.5698C52.8548 23.5011 52.7947 23.5419 52.8621 23.8046C52.9559 24.1637 52.845 24.2021 52.4125 23.9697C51.98 23.7373 51.4495 24.4641 51.7999 24.7961C51.9941 24.9815 52.0554 24.9728 52.1295 24.7732C52.1816 24.6366 52.4891 24.526 52.8291 24.5105C53.169 24.495 53.3969 24.5581 53.3448 24.6422C53.2928 24.7262 53.4061 24.754 53.5948 24.704C54.034 24.5884 54.0456 24.8542 53.6174 25.1243C53.3883 25.2677 53.3185 25.4605 53.3779 25.7757C53.4821 26.332 53.5096 26.332 54.1486 25.7931C54.4316 25.5514 54.7764 25.3554 54.9118 25.3554C55.2034 25.3554 55.2181 25.4414 54.9939 25.8629C54.8101 26.2066 54.9259 26.2152 56.2417 25.963C56.6705 25.879 56.8923 25.9012 56.8923 26.0279C56.8923 26.2535 55.9918 26.7567 55.5801 26.7567C55.3425 26.7567 55.3284 26.7999 55.5042 27.0138C55.68 27.2277 55.6708 27.2956 55.4656 27.3748C55.3352 27.4274 55.1947 27.4496 55.0546 27.4397C54.6919 27.3711 54.4659 27.4712 54.5032 27.6758C54.5296 27.8087 54.363 27.8896 54.0695 27.8822C53.702 27.8754 53.5905 27.9558 53.5868 28.2327C53.5819 28.5794 53.5678 28.5763 53.2401 28.1783C52.9693 27.8507 52.8977 27.8266 52.8977 28.0578C52.8977 28.2185 52.8199 28.305 52.7243 28.2432C52.6287 28.1814 52.4793 28.3378 52.3825 28.5881C52.2857 28.8384 52.0927 29.0826 51.9488 29.1401C51.8048 29.1975 51.6829 29.3502 51.6829 29.4849C51.6829 29.6197 51.5604 29.7322 51.4017 29.7322C51.2431 29.7322 51.0183 29.8657 50.8964 30.0338C50.6881 30.3194 50.6513 30.3175 50.2666 29.9899L49.8605 29.645L50.1668 30.011C50.3542 30.2353 50.9325 30.4887 51.6652 30.6674C53.1923 31.0382 53.5641 31.0283 54.1871 30.6136C54.7648 30.2279 55.0478 30.2996 54.8916 30.7935C54.8046 31.0704 54.8708 31.1334 55.2818 31.1334C55.5563 31.1334 55.8583 31.0549 55.9557 30.9585C56.0721 30.8392 56.2405 30.8639 56.4641 31.0283C56.7869 31.2669 56.7784 31.2892 56.2417 31.5976C55.8374 31.8306 55.7088 32.0093 55.7817 32.2386C55.8429 32.4438 55.7958 32.5433 55.6451 32.5223C55.1434 32.4543 54.9486 32.5396 55.0441 32.7918C55.2089 33.23 54.5755 33.4383 54.0946 33.1039C53.7773 32.8833 53.732 32.8727 53.8882 33.0705C54.1816 33.4383 53.8986 33.8234 53.4441 33.6781C52.7862 33.468 52.6091 33.8017 53.253 34.0391C54.0812 34.3401 54.9069 34.3352 55.2181 34.023C55.5599 33.6763 56.091 33.6732 55.9606 34.0181C55.8791 34.2301 56.001 34.2579 56.6375 34.1701C57.5716 34.0409 57.6893 34.3333 56.8286 34.6467C56.4102 34.7994 56.2626 34.9465 56.3183 35.1616C56.4102 35.5188 55.8619 35.7178 55.4399 35.4786C55.2089 35.3488 55.152 35.3995 55.152 35.7463C55.152 36.093 55.0876 36.1616 54.7771 36.0813C54.4665 36.0009 54.4267 36.0337 54.5234 36.2877C54.6202 36.5418 54.5688 36.5875 54.2894 36.514C54.0965 36.4627 53.9372 36.4911 53.9372 36.5758C53.9372 36.8848 53.5697 36.7284 53.1072 36.2309C52.5503 35.6319 52.2201 35.499 51.8109 35.711C51.335 35.9583 51.455 36.1573 52.0278 36.0733C52.6245 35.9842 52.7133 36.25 52.2826 36.8718C52.0309 37.2347 52.0309 37.2606 52.3537 37.2606C52.5799 37.276 52.7943 37.3686 52.9614 37.5233C53.1035 37.6673 53.3363 37.786 53.4821 37.786C53.6279 37.786 53.7884 37.8596 53.8447 37.9492C53.9011 38.0388 54.2582 38.1154 54.6258 38.1087C54.9933 38.1018 55.4013 38.163 55.5262 38.2403C55.6512 38.3176 56.0059 38.3639 56.3128 38.3435C56.7747 38.312 56.8788 38.375 56.9254 38.7057C56.9652 38.9913 57.1006 39.1069 57.4154 39.1211C57.6194 39.1271 57.8226 39.1494 58.0231 39.1878C58.181 39.2131 58.3415 39.2166 58.5003 39.1984C58.6669 39.1804 58.8066 39.2367 58.8066 39.322C58.8066 39.5531 57.8467 40.0717 57.413 40.0717C57.0326 40.0717 57.0258 40.0804 57.3315 40.4216C57.6372 40.7628 57.6378 40.772 57.1906 40.772C56.8506 40.772 56.7618 40.8369 56.8384 41.0403C56.9217 41.2609 56.8488 41.2906 56.4427 41.1923C56.2495 41.1424 56.0535 41.1044 55.8558 41.0786C55.3143 41.0891 55.1893 41.1485 55.2708 41.3623C55.4515 41.8389 55.0019 41.8265 54.7434 41.3469C54.4983 40.8895 54.4849 40.8839 54.4781 41.2535C54.4744 41.4692 54.4083 41.6528 54.3372 41.6633C53.2769 41.8197 53.1029 41.7684 52.8897 41.2486L52.6728 40.7232L52.5197 41.1379L52.369 41.5601L52.0321 41.1225C51.6988 40.6843 51.6988 40.6843 51.6958 41.0786C51.6903 41.6096 51.3815 41.5793 51.2461 41.0347C51.1849 40.793 51.0624 40.5971 50.968 40.5971C50.8737 40.5971 50.8608 40.6812 50.9245 40.7881C51.0079 40.9228 50.8743 40.9457 50.4804 40.8598C50.062 40.7671 49.9322 40.7881 49.9904 40.9525C50.0963 41.2745 51.1849 41.8228 51.7209 41.8228C51.9745 41.8228 52.2177 41.9211 52.2624 42.0416C52.3145 42.1751 52.6532 42.2518 53.1476 42.2431C53.5887 42.2363 53.9495 42.2907 53.9495 42.3667C53.9495 42.703 53.3473 43.0689 52.8701 43.0182C52.5871 42.9885 52.3427 43.0318 52.3286 43.1214C52.282 43.4138 53.2989 43.577 55.7725 43.6777C58.5597 43.7865 59.6777 43.9107 59.6777 44.0999C59.6777 44.1716 59.8737 44.1944 60.1114 44.1493C60.3564 44.0999 60.5457 44.1456 60.5457 44.2525C60.5457 44.4998 59.9779 44.8088 59.5197 44.8088C59.3236 44.8088 59.157 44.8879 59.157 44.9837C59.1595 45.0312 59.18 45.0759 59.2142 45.1085C59.2484 45.1412 59.2937 45.1594 59.3408 45.1593C59.4419 45.1593 59.6948 45.3218 59.905 45.5252L60.2854 45.8961L59.7212 45.8188C59.3481 45.7663 59.157 45.8114 59.157 45.9554C59.157 46.0852 59.0179 46.1359 58.8097 46.079C58.6155 46.0283 58.4623 46.0735 58.4623 46.1822C58.4623 46.4659 58.0219 46.4239 57.7683 46.1204C57.6501 45.9752 57.4767 45.8577 57.3781 45.8577C57.2794 45.8577 57.3223 45.998 57.4804 46.1748C57.6384 46.3516 57.7683 46.5457 57.7683 46.6124C57.7683 46.7979 57.1073 46.7527 56.9872 46.5587C56.8157 46.2762 56.5866 46.3553 56.4666 46.7336C56.3275 47.1768 56.1296 47.173 55.5017 46.7212L54.9964 46.3603L55.106 46.8961C55.2359 47.5569 54.9222 47.6094 54.2153 47.0507C53.7522 46.6829 53.74 46.6829 53.9219 47.0278C54.1388 47.4357 54.0346 47.6286 53.6738 47.4883C53.5384 47.4357 53.3112 47.4883 53.1684 47.6119C52.9902 47.7602 52.9081 47.7695 52.9081 47.6329C52.9081 47.5241 52.7923 47.4364 52.6477 47.4364C52.6145 47.4353 52.5815 47.4408 52.5504 47.4527C52.5193 47.4645 52.4909 47.4825 52.4667 47.5054C52.4425 47.5284 52.423 47.556 52.4094 47.5865C52.3958 47.6171 52.3883 47.6501 52.3874 47.6836C52.3874 47.8536 52.233 47.9185 51.9102 47.8814C50.1037 47.6749 52.4395 48.7344 54.5443 49.0743C55.9171 49.2968 56.0543 49.2876 56.5045 48.9865C56.7722 48.8079 57.0846 48.6645 57.2041 48.6645C57.5637 48.6645 57.4491 49.0131 57.0307 49.1948C56.7441 49.3185 56.847 49.3333 57.421 49.2443C57.8498 49.1775 58.4011 49.1337 58.6363 49.146C58.8715 49.1584 59.4572 49.0533 59.9276 48.9148C60.3981 48.7764 60.8073 48.6874 60.8385 48.7189C61.0192 48.9006 59.9086 49.6238 59.2869 49.7258L58.5518 49.8463L59.2029 49.8673C59.6556 49.8834 59.8535 49.9693 59.8535 50.1529C59.8535 50.2963 59.7163 50.4279 59.5472 50.4422C59.3871 50.4556 59.2278 50.4777 59.07 50.5083C58.9304 50.538 58.789 50.5587 58.6467 50.5701C58.463 50.5856 58.4868 50.6554 58.7337 50.8377C59.1625 51.1548 58.9591 51.3823 58.4783 51.1233C58.1799 50.962 58.1156 50.9781 58.1156 51.216C58.1156 51.4404 57.9931 51.4861 57.5514 51.4243C57.2423 51.3811 56.9373 51.3115 56.6399 51.216C56.2981 51.0924 56.3036 51.0924 56.635 51.3631C56.9664 51.6339 56.9003 51.7068 56.3367 51.6487C56.1627 51.6314 56.0304 51.7383 56.0304 51.8959C56.0304 52.2705 55.8895 52.2408 55.4791 51.7766L55.1268 51.3829L55.4092 51.8588C55.5624 52.1197 55.6855 52.4151 55.6855 52.5159C55.6855 52.7854 54.8334 52.5857 54.4273 52.2198C54.0867 51.9108 54.0836 51.9188 54.2153 52.3434C54.3991 52.9368 54.6129 53.0617 56.2117 53.5469C57.541 53.9492 57.6207 53.9548 58.3374 53.6779C59.1202 53.3769 60.1984 53.291 60.1984 53.5308C60.1984 53.6081 60.1083 53.7688 59.9919 53.8862C59.8511 54.0284 60.0838 54.0055 60.7032 53.8201C61.2104 53.6693 61.7445 53.5889 61.8909 53.6445C62.1182 53.7342 62.0974 53.8201 61.7605 54.1823L61.3647 54.6081L61.9498 54.44C62.7045 54.2206 63.6227 54.2206 63.7569 54.44C63.891 54.6594 62.7345 55.144 62.0484 55.1453H61.5001L62.0104 55.5551C62.5139 55.9618 62.5084 56.494 62.0055 56.2999C61.837 56.235 61.7605 56.34 61.7605 56.6392C61.7605 56.9483 61.6704 57.0719 61.4291 57.0719C61.2042 57.0892 60.9921 57.1839 60.8281 57.3401C60.6064 57.5627 60.5041 57.5676 60.2088 57.384C60.0146 57.2604 59.8511 57.1003 59.8511 57.028C59.8511 56.9557 59.7138 57.0336 59.5448 57.2035C59.2115 57.5274 59.116 57.9453 59.3763 57.9453C59.4615 57.9453 59.4737 58.0293 59.4094 58.1362C59.3261 58.271 59.4547 58.2957 59.8327 58.2135C60.1782 58.1362 60.3742 58.1573 60.3742 58.2753C60.3742 58.3841 60.713 58.4682 61.1552 58.4682C61.9694 58.4682 62.1225 58.619 61.6759 58.9935C61.5026 59.1388 61.1344 59.179 60.5911 59.1073L59.7671 59.0041L60.4128 59.3489C60.8606 59.5888 61.0254 59.7779 60.9543 59.967C60.89 60.137 60.746 60.1933 60.5702 60.1197C60.3948 60.0495 60.213 59.9967 60.0275 59.9621C59.8847 59.9374 59.8639 59.9534 59.984 59.9955C60.4232 60.1475 60.1953 60.4282 59.7236 60.3175C59.3818 60.2372 59.3193 60.2557 59.5013 60.3793C59.9595 60.6884 59.5515 60.7774 59.0014 60.49C58.7061 60.3361 58.4648 60.2835 58.4648 60.3744C58.4648 60.4652 58.5622 60.5777 58.6823 60.6216C58.8023 60.6655 58.8385 60.765 58.7637 60.8454C58.689 60.9257 58.4041 60.9072 58.1285 60.8015C57.7187 60.6457 57.6384 60.6562 57.7168 60.8559C57.783 61.0326 57.7223 61.0642 57.4896 60.9795C57.217 60.8831 57.2016 60.9059 57.3909 61.1111C57.5692 61.3021 58.1665 61.3473 60.1243 61.3194C61.6398 61.2966 62.6309 61.3491 62.6309 61.4505C62.6309 61.5518 62.5084 61.6205 62.3602 61.6205C62.2119 61.6205 61.9779 61.7311 61.8444 61.8677C61.6343 62.0797 61.6398 62.1285 61.8726 62.2182C62.0196 62.2756 62.3877 62.3214 62.6898 62.3232C63.3287 62.3232 63.7661 62.5544 63.6129 62.8047C63.4242 63.1138 62.5611 63.1688 61.8499 62.9185C60.9004 62.5859 60.8483 62.6051 61.3396 63.0989C61.9522 63.717 61.9069 64.0879 61.2471 63.9025C61.0081 63.837 60.7758 63.749 60.5531 63.6398C60.4544 63.578 60.3693 63.6732 60.3534 63.8462C60.3374 64.0193 60.3136 64.2523 60.3031 64.3667C60.2906 64.4872 60.2436 64.6015 60.1678 64.6955C60.0305 64.834 58.9855 64.2418 58.9855 64.0286C58.9855 63.9464 58.9144 63.9266 58.8225 63.9847C58.7166 64.0514 58.7166 64.2474 58.8225 64.5311C58.9144 64.7746 58.9855 65.0528 58.9855 65.1492C58.9855 65.3803 58.1646 64.7814 57.3419 63.9513C56.7293 63.3332 56.6411 63.4364 57.2121 64.1089C57.3523 64.2752 57.4148 64.5416 57.3523 64.706C57.2537 64.9687 57.1961 64.9532 56.801 64.5824L56.3496 64.1676L56.4108 64.6053C56.4641 65.0064 56.5823 65.0589 57.8583 65.2728C58.7539 65.4218 59.3408 65.444 59.5123 65.3346C59.9478 65.0651 60.8955 64.9019 60.8955 65.1003C60.8955 65.198 60.7583 65.3136 60.5892 65.3575C60.4201 65.4014 60.6762 65.3995 61.1534 65.3575C61.8511 65.2957 61.9798 65.3229 61.8046 65.4996C61.4732 65.8377 61.5479 65.9638 62.0214 65.8705C62.5819 65.7623 63.3691 65.9638 63.2362 66.1795C63.1792 66.2723 62.955 66.3495 62.7381 66.3495C61.9957 66.3495 62.0998 66.5893 63.004 66.9571C64.5434 67.5802 64.2065 68.0443 62.6236 67.4825C61.8217 67.1969 61.5075 67.2458 62.098 67.5629C62.2959 67.6716 62.4551 67.8836 62.4551 68.0338C62.4551 68.2459 62.3498 68.2811 61.9939 68.1933C61.584 68.0901 61.5546 68.1062 61.7562 68.3509C62.223 68.9202 61.728 68.9221 60.9525 68.3509C60.5911 68.0851 60.5776 68.0882 60.6762 68.4745C60.7699 68.8405 60.7509 68.8584 60.4869 68.6396C60.2229 68.4208 60.2076 68.4325 60.3136 68.7267C60.4195 69.0209 60.3748 69.0073 59.9975 68.6649C59.557 68.2588 59.2844 68.2941 59.451 68.7267C59.5827 69.0753 59.1662 69.0296 58.5064 68.6235C58.1922 68.4294 57.9423 68.3627 57.9423 68.4696C57.9423 68.5883 57.7585 68.6198 57.4651 68.5518C57.1422 68.4783 57.073 68.4937 57.2482 68.6006C57.3922 68.6884 57.9392 68.8479 58.463 68.956C59.5932 69.1928 59.9454 69.3838 59.7702 69.6693C59.6507 69.8634 59.418 69.8424 58.3766 69.5587C58.1107 69.487 58.1609 69.597 58.5934 70.0192C58.904 70.3208 59.1576 70.6045 59.1576 70.6533C59.1576 70.827 58.1922 70.6113 57.639 70.3134C57.0295 69.9876 56.9376 70.0878 57.3401 70.6224C57.6923 71.0934 57.6599 71.3023 57.2482 71.1917C57.0228 71.1299 56.9009 71.1917 56.9009 71.3505C56.9009 71.6781 56.7416 71.6596 56.3367 71.2887C56.0157 70.9964 56.0022 70.9982 56.061 71.3326C56.1529 71.8667 55.1899 71.7035 54.6778 71.1015L54.2766 70.6323L54.3893 71.201C54.5406 71.9544 54.1051 71.9736 53.4294 71.2449C53.1623 70.9562 52.9209 70.7195 52.8879 70.7195C52.8548 70.7195 52.815 70.9228 52.8015 71.1731C52.7617 71.8617 52.4787 72.0471 52.1172 71.6213C51.8312 71.285 51.7913 71.2801 51.5794 71.5595C51.3674 71.8388 51.3466 71.829 51.2498 71.4766C51.1886 71.2492 51.0483 71.1317 50.9074 71.1861C50.7665 71.2405 50.6299 71.1076 50.5552 70.8097C50.4737 70.4858 50.3941 70.4049 50.3003 70.5575C50.2256 70.6812 50.0014 70.8048 49.8005 70.8357C49.5193 70.8796 49.3527 70.7201 49.0574 70.1088C48.677 69.3195 48.2764 69.0148 48.4828 69.6712C48.6163 70.0952 48.5159 70.1039 47.9572 69.733C47.7208 69.5772 47.5229 69.283 47.5125 69.076C47.4953 68.7768 47.4727 68.7669 47.4083 69.0141C47.2766 69.5235 47.0077 69.1699 47.0022 68.4764C46.9973 67.9529 46.9661 67.8892 46.8233 68.1383C46.7637 68.2285 46.6841 68.3035 46.5907 68.3571C46.4973 68.4108 46.3928 68.4417 46.2855 68.4473C45.9437 68.4473 45.9314 68.5092 46.0404 69.8072C46.1189 70.7108 46.299 71.4482 46.582 72.0119C46.7486 72.3426 46.8883 72.6368 46.9569 72.8H42.6388C42.4477 72.6461 42.5346 72.3741 42.7325 71.8963C43.0388 71.1546 43.1576 69.6353 42.9163 69.555C42.8207 69.5235 42.61 69.7299 42.4391 70.0204C42.1212 70.56 41.7328 70.7621 41.9129 70.2887C42.1181 69.7491 41.7953 70.0414 41.5606 70.6107C41.3732 71.0625 41.2225 71.1973 40.9101 71.175C40.684 71.1571 40.3876 71.2257 40.2522 71.3271C40.0764 71.4599 39.9882 71.455 39.9379 71.3061C39.8926 71.1676 39.7541 71.2115 39.5318 71.4377C39.084 71.8877 38.8616 71.8667 38.9676 71.3833C39.0178 71.1521 38.9921 71.0644 38.9063 71.175C38.7066 71.434 38.1529 71.6213 38.1529 71.4321C38.1529 71.2554 37.1948 71.3184 36.6931 71.5249C36.4291 71.6336 36.3807 71.6003 36.4658 71.3777C36.5271 71.222 36.483 71.0644 36.3684 71.0205C36.2104 70.963 36.2092 70.8857 36.3739 70.7114C36.7678 70.2911 36.6049 70.2367 35.9555 70.5693C35.2388 70.9401 35.0367 70.8845 35.3858 70.4222C35.5696 70.1749 35.5751 70.1545 35.3914 70.3171C35.2688 70.4314 35.0563 70.484 34.9264 70.4327C34.7965 70.3814 34.6814 70.4104 34.6814 70.4945C34.6814 70.5785 34.5754 70.8035 34.4437 70.989C34.2354 71.2764 34.1588 71.2887 33.9108 71.0817C33.6627 70.8746 33.5916 70.8962 33.3466 71.2517L33.0654 71.6565L32.9073 71.2343C32.7634 70.8437 32.7358 70.8351 32.5275 71.1206C32.2531 71.4952 32.13 71.5007 31.7925 71.1589C31.5805 70.9451 31.5701 70.8388 31.7385 70.6336C31.8549 70.492 31.8997 70.3764 31.8353 70.3764C31.771 70.3764 31.8133 70.1972 31.9223 69.9821C32.0926 69.6508 32.0283 69.673 31.5388 70.1187C30.4576 71.1027 30.3866 71.1398 30.0791 70.8295C29.9265 70.6756 29.8622 70.4531 29.9333 70.335C30.0043 70.217 29.9161 70.2299 29.7268 70.3839C28.808 71.1256 27.8799 71.2733 28.5066 70.5748C28.7877 70.2596 28.7792 70.2349 28.3277 70.1212L27.8554 69.9975L28.3645 69.5828C29.0309 69.0327 28.675 69.0308 27.72 69.5828C27.3035 69.8208 26.8624 70.0155 26.743 70.0204C26.3926 70.0204 26.493 69.7441 26.9163 69.5389C27.2692 69.3671 27.241 69.3461 26.61 69.3356C26.2229 69.3288 25.7524 69.2119 25.5686 69.0679C25.2476 68.8207 25.2526 68.8102 25.7475 68.8052C26.4906 68.7966 29.1357 68.3107 29.6858 68.0821C30.3596 67.8014 30.4877 67.3743 29.8212 67.6284C29.2362 67.8509 28.9397 67.6667 29.3715 67.3496C29.6215 67.1642 29.54 67.1432 28.8772 67.1957C28.0318 67.2637 27.8511 67.0486 28.4815 66.7247C28.8196 66.551 28.7626 66.53 28.0263 66.5671C27.0321 66.6159 26.7521 66.2865 27.6079 66.0726L28.1776 65.9305L27.6134 65.8686C26.9518 65.7862 26.8939 65.6053 27.4395 65.326C27.7592 65.1615 27.6232 65.1405 26.7044 65.2172C25.6667 65.3049 25.6078 65.2907 25.9184 65.0422C26.1022 64.8933 26.3901 64.774 26.5586 64.774C26.727 64.774 26.9108 64.6868 26.9751 64.5818C27.048 64.4625 26.9408 64.4013 26.6835 64.4242C25.9582 64.486 25.4896 64.4241 25.4896 64.2696C25.4896 64.1856 26.0409 64.0632 26.7099 63.9964C27.3788 63.9297 27.8915 63.811 27.8431 63.7337C27.7948 63.6565 27.2961 63.4865 26.7325 63.3629C25.6685 63.1249 24.9947 62.7689 25.2084 62.5538C25.3156 62.4431 26.2829 62.6026 27.5724 62.9475C27.9681 63.0526 27.9595 63.0211 27.4143 62.5482C26.5206 61.7707 27.0254 61.6903 28.3154 62.4067C29.6055 63.1231 30.3529 63.1824 31.7869 62.6848C33.4146 62.1193 36.0548 60.7687 36.2508 60.3979C36.4958 59.9386 36.3568 59.951 35.9145 60.4294C35.7197 60.6414 35.5568 60.7483 35.5568 60.6711C35.5568 60.5938 35.4404 60.6272 35.2964 60.7483C35.0808 60.927 35.0361 60.9109 35.0361 60.6482C35.0361 60.3855 34.9472 60.417 34.4945 60.846L33.9512 61.3609L34.0431 60.7836C34.1472 60.2273 34.1405 60.2211 33.6755 60.4226C33.4172 60.5313 33.1708 60.667 32.9404 60.8274C32.2666 61.3491 32.1888 61.3386 32.3119 60.7224C32.4038 60.2582 32.3848 60.1772 32.2182 60.3453C31.9162 60.6507 31.2044 60.6154 31.2044 60.2965C31.2044 59.9776 30.925 59.9534 30.7376 60.2687C30.661 60.3979 30.3817 60.6395 30.1195 60.8095C29.7256 61.0673 29.6423 61.0759 29.6423 60.8658C29.6423 60.7242 29.7985 60.4702 29.9896 60.2965C30.1808 60.1228 30.337 59.8953 30.337 59.7977C30.337 59.7 30.2935 59.6741 30.234 59.7359C30.1746 59.7977 30.0031 59.7217 29.8542 59.5709C29.6668 59.3817 29.3838 59.3236 28.9354 59.3854C28.487 59.4472 28.2536 59.3996 28.1929 59.2365C28.1231 59.0578 27.965 59.0405 27.5295 59.1666C25.9981 59.6098 25.7175 59.1048 27.1944 58.564C28.1929 58.1999 28.3179 58.0139 27.3837 58.2858C26.1965 58.6289 24.6516 58.368 25.3065 57.9354C25.4504 57.8389 25.919 57.7499 26.3478 57.7376C27.0107 57.7184 27.0541 57.7005 26.6235 57.6059C26.346 57.5441 26.0838 57.3853 26.0385 57.2505C25.9711 57.0459 26.2449 57.0231 27.7206 57.1269C29.4561 57.2505 29.4843 57.2505 29.2705 56.9025C28.9531 56.3895 29.1718 56.3005 30.0362 56.5935C30.5296 56.7562 31.051 56.8139 31.5676 56.7628C32.571 56.6392 35.8918 55.5161 36.2845 55.1712C36.6925 54.8084 36.6698 54.5562 36.241 54.6947C36.0468 54.7565 35.8943 54.7243 35.8943 54.623C35.8943 54.4338 35.6339 54.4882 34.7659 54.8702C34.4792 54.9938 33.8513 55.1014 33.3668 55.1051C32.8822 55.1088 32.4136 55.1261 32.3254 55.1434C31.9193 55.2225 31.8758 55.1014 32.1778 54.7392C32.3965 54.4765 32.3272 54.5062 31.9781 54.8269C31.3777 55.3746 31.2074 55.4203 31.2074 55.0402C31.2074 54.809 31.1523 54.809 30.7633 55.0668C30.5011 55.2398 30.2671 55.2942 30.1991 55.1978C30.1311 55.1014 29.85 54.932 29.5639 54.8041C29.0659 54.5834 29.0573 54.5655 29.3801 54.3275C29.7722 54.0389 29.6729 54.0142 29.0536 54.2521C28.7185 54.3801 28.604 54.3677 28.604 54.1965C28.604 54.058 28.1629 53.8757 27.4756 53.7323C26.8563 53.6006 26.3478 53.4233 26.3478 53.338C26.3478 53.2527 26.2749 53.2347 26.1794 53.2941C26.0838 53.3534 25.8688 53.3225 25.7022 53.2279C25.4382 53.079 25.4608 53.0388 25.8804 52.9319C26.2437 52.8404 26.3356 52.7341 26.2609 52.4936C26.1861 52.2532 26.2645 52.1667 26.5592 52.1228C26.8404 52.0807 26.6407 51.9577 25.8755 51.713C24.6902 51.331 24.3986 50.9861 25.4363 51.1925C26.3962 51.3817 28.7773 51.4256 28.7773 51.2543C28.7736 51.2117 28.7533 51.1722 28.7208 51.1447C28.6883 51.1171 28.6463 51.1036 28.604 51.1072C28.558 51.1068 28.5141 51.0881 28.4817 51.0553C28.4493 51.0224 28.4309 50.978 28.4306 50.9317C28.4306 50.8353 28.8018 50.7636 29.2551 50.7722C30.3933 50.7951 32.2145 50.4119 32.3254 50.1208C32.3867 49.9582 32.2752 49.8809 31.9836 49.8809C31.7471 49.8809 31.5548 49.8037 31.5548 49.711C31.5548 49.6182 31.4384 49.583 31.2944 49.6393C31.1505 49.6955 31.0341 49.6479 31.0341 49.536C31.0341 49.4013 30.9036 49.4272 30.6488 49.6059C30.4022 49.7675 30.1178 49.8607 29.8242 49.876L29.385 49.8686L29.7863 49.5305L30.182 49.1961L29.3519 49.1417L28.517 49.0799L29.1247 48.7857L29.7323 48.4896L29.2012 48.4846C29.0226 48.4773 28.8472 48.4344 28.685 48.3583C28.5229 48.2822 28.3773 48.1746 28.2566 48.0415C28.033 47.7998 27.7666 47.6039 27.6649 47.6039C27.5632 47.6039 27.3733 47.4425 27.2538 47.2478C26.9359 46.7348 27.3402 46.6297 28.3387 46.9734C29.4144 47.3443 29.6368 47.3319 29.5259 46.9029C29.415 46.474 29.4457 46.4777 30.536 46.8368C31.3636 47.11 31.4506 47.1026 32.775 46.7225C34.5613 46.2076 35.0195 45.7279 33.6431 45.8083C33.57 45.811 33.4973 45.7961 33.4311 45.7647C33.3649 45.7333 33.3072 45.6863 33.2626 45.6278C33.1775 45.4881 33.0335 45.5215 32.7922 45.7422C32.5196 45.9894 32.2923 46.0327 31.7385 45.9399C30.9508 45.8052 30.9024 45.7384 31.3379 45.3756C31.6503 45.1166 31.5339 45.1234 30.7866 45.4251C30.5213 45.532 30.476 45.5005 30.5648 45.2656C30.6482 45.0499 30.5802 44.9763 30.3167 44.9763C30.0717 44.9763 29.9847 44.8923 30.049 44.7241C30.103 44.5863 30.0564 44.4336 29.9418 44.3848C29.7961 44.323 29.815 44.2235 30.0178 44.0572C30.28 43.8384 30.2696 43.7877 29.8879 43.4163C29.2613 42.8087 29.3777 42.6826 30.2941 42.978C32.571 43.7154 33.4078 43.7593 33.9696 43.1585C34.2856 42.8192 34.3046 42.7258 34.0921 42.6436C33.95 42.5892 33.602 42.6331 33.311 42.7438C32.5686 43.0256 32.4105 42.7438 33.028 42.2394C33.4623 41.8852 33.4917 41.8209 33.202 41.845C32.5943 41.8976 32.247 41.8296 32.247 41.6491C32.247 41.5527 32.3842 41.4686 32.5533 41.4637C32.7983 41.455 32.791 41.4216 32.492 41.3005C32.2905 41.2183 32.0785 41.0273 32.0197 40.8734C31.926 40.6299 31.9585 40.6175 32.296 40.8066C32.9018 41.1503 36.5185 41.0978 37.2806 40.7368C37.8135 40.4846 37.8417 40.4475 37.4821 40.4352C37.1525 40.4234 37.0845 40.3511 37.1611 40.0569C37.2463 39.7299 37.2273 39.7157 36.9669 39.9432C36.5865 40.2708 36.0658 40.4549 36.0658 40.2602C36.0658 40.1762 35.9096 40.1447 35.7185 40.1935C35.5273 40.2423 35.3718 40.1991 35.3718 40.0903C35.3718 39.9815 35.177 39.8993 34.9374 39.8993C34.361 39.8993 34.3861 39.7244 35.0599 39.1712L35.6186 38.7119L34.69 38.859C33.7337 39.0117 33.3864 38.9486 33.5671 38.6507C33.7478 38.3528 33.2792 37.9708 32.7548 37.9708C32.1631 37.9708 32.081 37.6815 32.6403 37.5592C32.8626 37.5116 32.7689 37.48 32.4234 37.4943C32.0277 37.5085 31.8317 37.4467 31.8592 37.3088C31.8837 37.1914 31.8194 37.095 31.7134 37.095C31.5811 37.095 31.5909 37.0053 31.7392 36.8199C31.8837 36.6468 32.1281 36.5764 32.413 36.6345C32.658 36.6852 32.7597 36.687 32.6403 36.6345C32.239 36.4589 32.4161 36.1789 32.8571 36.2896C33.2093 36.3786 33.2633 36.3434 33.1714 36.1042C33.0899 35.8891 33.126 35.8501 33.2939 35.9571C33.4225 36.0362 33.7258 36.1165 33.9726 36.1375C34.2691 36.1664 34.5629 36.2191 34.8511 36.2951L35.2848 36.4188L34.8076 36.009C34.2562 35.5306 34.1754 35.2506 34.6667 35.5145C35.158 35.7784 35.5053 35.7531 35.2364 35.4811C34.8455 35.0874 34.9999 34.7771 35.3993 35.1523C35.6758 35.3918 35.9818 35.5944 36.3096 35.7549C37.3706 36.263 40.2301 35.5695 40.2301 34.8092C40.2435 34.6267 40.3183 34.4542 40.4421 34.3203C40.5811 34.1806 40.5842 34.1139 40.4574 34.1139C40.3533 34.1139 40.2252 34.2313 40.1713 34.3766C40.1101 34.5428 39.8589 34.6306 39.4975 34.6164C39.1851 34.6059 38.7526 34.6553 38.5376 34.727C38.216 34.8321 38.1467 34.7845 38.1467 34.4854V34.1244L37.555 34.4749C37.1317 34.727 36.9283 34.774 36.8401 34.6269C36.7703 34.5169 36.8223 34.3506 36.9547 34.261C37.1593 34.1207 36.1473 34.1405 35.4563 34.2888C35.3607 34.3086 35.1059 34.2666 34.8872 34.1961C34.5197 34.0774 34.5141 34.0403 34.7647 33.7585C35.0152 33.4766 35.006 33.4451 34.5968 33.3413C34.0951 33.2176 33.9959 32.8863 34.4559 32.8758C34.6471 32.8721 34.5668 32.7831 34.2391 32.6286C33.8728 32.4441 33.5271 32.2206 33.2081 31.9617L32.7046 31.5339L33.338 31.4134C33.6902 31.3467 33.9788 31.2169 33.9788 31.1223C33.9788 31.0277 34.1797 30.9987 34.4559 31.0685C34.8725 31.1736 34.9093 31.1575 34.7163 30.9208C34.3812 30.5098 34.8811 30.3849 35.395 30.7514C35.6346 30.9226 36.1571 31.0506 36.6588 31.0605C37.3424 31.071 37.4398 31.0358 37.1409 30.901C36.8027 30.7483 36.7697 30.6068 36.9191 29.9374C36.9259 29.9059 37.193 30.0443 37.5158 30.2464C37.8386 30.4486 38.363 30.6093 38.6876 30.6093C39.7689 30.6056 41.6317 29.8768 42.8152 28.9942C43.2697 28.653 43.173 28.5825 42.6468 28.8706C42.3723 29.0177 42.3086 28.9942 42.3049 28.7395C42.2994 28.4397 42.2908 28.4379 42.1212 28.734C42.0219 28.9039 41.8712 29.0004 41.7842 28.9478C41.6973 28.8953 41.4283 28.9793 41.187 29.1388C40.7533 29.4256 40.7514 29.4207 40.7478 28.925C40.7478 28.648 40.6865 28.5114 40.6179 28.6159C40.4647 28.8452 39.8105 29.213 39.5483 29.213C39.4479 29.213 39.3523 29.0344 39.3437 28.8193C39.3266 28.4441 39.3229 28.4484 39.2083 28.8631C39.141 29.103 39.0503 29.2643 39.0068 29.2235C38.9633 29.1827 38.7654 29.2377 38.5676 29.3471C38.2748 29.5047 38.1633 29.4781 37.9709 29.2105C37.8405 29.0282 37.6646 28.9231 37.5856 28.9738C37.5066 29.0245 37.4901 28.8638 37.5525 28.6134C37.6616 28.1771 37.6463 28.1647 37.1899 28.3402C36.6257 28.5553 36.4505 28.4484 36.7556 28.0775C36.9393 27.855 36.921 27.8148 36.6637 27.8148C36.3721 27.8148 36.3758 27.7951 36.6588 27.4798C36.8217 27.2944 36.8824 27.1034 36.7942 27.0472C36.706 26.9909 36.4952 27.0997 36.3268 27.2888C36.0634 27.5831 35.8931 27.609 35.2241 27.4743C35.1874 27.4675 35.2413 27.3568 35.3466 27.227C35.5721 26.9526 35.4385 26.7635 35.0146 26.7635C34.8498 26.7635 34.5288 26.6071 34.3046 26.4179L33.8918 26.0731L34.4125 26.0397C34.7271 26.0222 35.0426 26.024 35.3571 26.0452C35.7246 26.0798 35.7509 26.0452 35.5512 25.8054C35.1727 25.3431 35.4404 25.3443 36.1099 25.8054C36.837 26.3042 37.2738 26.3901 36.9295 25.9698C36.7458 25.7455 36.7556 25.7176 36.9951 25.8104C37.3253 25.9383 37.3737 25.7003 37.0753 25.4006C36.6306 24.9506 37.1029 25.0186 37.6512 25.4809C38.7293 26.3938 38.8628 26.4235 40.0813 26.0502C41.3591 25.6614 42.2149 25.1731 42.4734 24.6904C42.6314 24.3943 42.5959 24.3523 42.2179 24.3733C41.9803 24.3875 41.7493 24.5204 41.7028 24.6694C41.6562 24.8183 41.4528 24.9494 41.2531 24.9654C40.9597 24.9864 40.9076 24.916 40.9873 24.615C41.0743 24.2787 41.0375 24.2911 40.6767 24.7132C40.4543 24.9741 40.1003 25.1892 39.8852 25.1892C39.5453 25.1892 39.5054 25.123 39.5918 24.6799C39.7241 24.0179 39.3162 23.8337 38.8922 24.3708C38.6025 24.7349 37.6273 24.9889 37.6236 24.7052C37.6236 24.6335 37.8772 24.3652 38.1878 24.1026C38.6166 23.7385 38.6778 23.6248 38.4426 23.6211C38.2729 23.6173 38.0904 23.728 38.0365 23.8732C37.9826 24.0185 37.8699 24.0976 37.7914 24.0482C37.713 23.9987 37.6022 24.0377 37.5415 24.1359C37.4809 24.2342 37.2236 24.3164 36.9718 24.3164C36.5344 24.3164 36.5295 24.3022 36.8524 24.0642C37.1752 23.8263 37.1715 23.8083 36.7011 23.626C36.4321 23.5228 36.1197 23.4369 36.007 23.435C35.8943 23.4332 35.9966 23.3163 36.2343 23.1828C36.6582 22.9467 36.6527 22.9412 35.9966 23.003C35.5678 23.0413 35.2315 22.9745 35.0734 22.8175C34.6912 22.4343 34.9619 22.2174 35.8232 22.2174C36.3023 22.2174 36.5583 22.1438 36.4971 22.0369C36.2784 21.6796 36.9191 21.6722 37.6414 22.0245C38.5265 22.4572 38.6913 22.4782 38.5602 22.1296C38.499 21.9633 38.5602 21.8669 38.7342 21.8669C38.9082 21.8669 38.97 21.7686 38.9076 21.6042C38.7893 21.2952 38.8506 21.2853 39.4215 21.5041C39.7946 21.6481 39.8344 21.6277 39.7584 21.3292C39.6678 20.9768 39.9575 20.8545 40.1487 21.1666C40.2099 21.2624 40.5775 21.5115 40.9677 21.713C41.598 22.0369 41.7591 22.0523 42.3766 21.8669C42.953 21.692 43.0259 21.6252 42.7827 21.4886C42.6198 21.3978 42.4844 21.2031 42.4844 21.056C42.4844 20.8495 42.6615 20.8001 43.2704 20.8371C43.8621 20.8736 44.1347 20.8001 44.3883 20.5411C44.7687 20.1523 45.1381 18.7647 44.8986 18.6151C44.7491 18.523 44.6677 18.8963 44.7301 19.3766C44.7461 19.5002 44.5929 19.8352 44.3883 20.1257C44.09 20.5479 43.965 20.6109 43.7702 20.4484C43.6348 20.3359 43.5203 20.0404 43.5099 19.7864C43.4927 19.4217 43.4682 19.3995 43.4008 19.6776C43.2685 20.2203 42.8195 20.6406 42.3644 20.6406C42.0103 20.6406 41.9772 20.5918 42.1322 20.3013C42.3595 19.8735 42.3595 19.7128 42.1371 19.8525C42.0415 19.9143 41.9637 19.8772 41.9637 19.7759C41.9647 19.7281 41.947 19.6818 41.9145 19.6471C41.8819 19.6124 41.8371 19.5921 41.7898 19.5904C41.6948 19.5904 41.6164 19.7011 41.6164 19.8377C41.6164 20.1529 40.6026 21.0269 40.3912 20.894C40.3024 20.8396 40.2277 20.6431 40.2277 20.4558C40.2277 20.2685 40.1499 20.1177 40.0488 20.1177C39.9477 20.1177 39.9122 20.0182 39.9728 19.8989C40.0335 19.7796 39.9398 19.8587 39.7609 20.0794C39.582 20.3 39.3756 20.4243 39.3064 20.3526C39.2371 20.2809 39.0074 20.1968 38.7961 20.1671C38.3256 20.1004 37.6242 19.7518 37.6242 19.5806C37.6242 19.5119 37.857 19.3599 38.14 19.2425C38.423 19.125 38.638 18.9334 38.6172 18.8259C38.5964 18.7183 38.8169 18.6163 39.1073 18.6064C39.7143 18.5867 40.5977 18.1707 40.2712 18.0594C40.208 18.0325 40.1539 17.9878 40.1154 17.9305C40.0769 17.8732 40.0557 17.8059 40.0543 17.7368C40.0543 17.4586 40.9223 17.3882 41.1931 17.6434C41.4639 17.8987 42.1371 18.0526 42.1371 17.8678C42.1371 17.7757 41.9392 17.6515 41.693 17.589C41.3254 17.4951 41.2813 17.4271 41.4534 17.2182C41.6256 17.0093 41.5992 16.9654 41.3352 16.9604C40.9481 16.9543 40.2938 16.4882 40.45 16.3312C40.5113 16.2694 40.9168 16.1835 41.3511 16.134C42.2186 16.0351 42.2155 16.0382 41.9582 15.5543C41.7916 15.2403 41.7499 15.2353 41.3665 15.4881C40.983 15.7409 40.9481 15.7354 40.8403 15.3954C40.779 15.1958 40.6528 15.0771 40.5646 15.1327C40.4764 15.1884 40.4016 15.1525 40.4016 15.0505C40.4016 14.9485 40.2454 14.8651 40.0543 14.8651C39.8632 14.8651 39.707 14.7532 39.707 14.6178C39.707 14.3496 40.0745 14.1635 40.5903 14.1635C40.9848 14.1635 41.0387 13.8421 40.6669 13.6981C40.5248 13.6431 40.4445 13.5399 40.488 13.4682C40.5315 13.3965 40.3735 13.2352 40.1358 13.1072C39.5508 12.7914 39.6947 12.4996 40.4421 12.4996H41.0547L40.6154 11.9192C40.2736 11.4668 40.2271 11.2968 40.3937 11.1312C40.5603 10.9655 40.7269 11.0564 41.1747 11.5471C41.7058 12.1294 41.7597 12.1516 41.9453 11.8562C42.0544 11.6794 42.221 11.5385 42.3129 11.5385C42.5199 11.5385 43.0682 12.5188 43.1864 13.1041C43.2746 13.5368 44.8716 14.9176 45.113 14.768C45.1804 14.7254 45.2135 14.2575 45.1926 13.7278C45.1718 13.1981 45.2239 12.7648 45.3072 12.7648C45.3905 12.7648 45.434 12.4737 45.4046 12.1189C45.3593 11.5805 45.2723 11.4501 44.868 11.3419C44.4483 11.2294 44.3944 11.2548 44.4827 11.5335C44.6407 12.0367 44.2174 12.1646 43.8805 11.714C43.7016 11.4754 43.535 11.3858 43.4688 11.4952C43.3494 11.6881 42.6602 11.5861 42.6602 11.3747C42.6602 11.2115 43.5246 10.3962 43.674 10.4166C43.8158 10.4134 43.9564 10.3914 44.0924 10.3511C44.5825 10.2219 44.264 9.97594 43.7451 10.0829C42.8752 10.2627 42.0911 10.2294 42.0146 10.0062C41.9748 9.88569 42.0544 9.78742 42.1934 9.78742C42.3325 9.78742 42.542 9.66812 42.6602 9.52473C42.7785 9.38133 42.9451 9.30777 43.0278 9.36031C43.1105 9.41285 43.1785 9.39493 43.1785 9.31704C43.1785 9.23916 42.9445 9.01665 42.6578 8.82257C42.1322 8.4684 41.9876 8.20941 42.316 8.20941C42.632 8.20941 43.769 8.73974 43.9215 8.95917C44.0116 9.08897 44.0293 9.02098 43.965 8.78981C43.9074 8.58089 43.9356 8.36394 44.0263 8.30769C44.2137 8.19025 44.9151 9.31643 44.9151 9.73611C44.9151 9.89126 44.9672 9.96852 45.0297 9.90609C45.0922 9.84366 45.2514 9.92463 45.3819 10.0915C45.5884 10.3561 45.6055 10.2844 45.5277 9.53894C45.4567 8.84544 45.2931 8.50734 44.6597 7.76006C44.2309 7.25198 43.8737 6.72289 43.8737 6.58567C43.8737 6.16475 44.7448 6.44165 44.9256 6.91944C45.2116 7.68032 45.5277 7.41392 45.4634 6.47071C45.415 5.78091 45.4775 5.52007 45.7697 5.2067L46.1329 4.79999ZM47.3097 10.9464C47.2301 10.9507 47.0426 11.1027 46.827 11.3456C46.4699 11.7493 46.3063 12.1127 46.3063 12.5114C46.3063 12.8315 46.3394 13.0967 46.378 13.0967C46.4699 13.0967 46.6935 12.5546 46.7737 12.1393C46.8297 11.9092 46.9384 11.6956 47.091 11.5156C47.2313 11.358 47.3458 11.12 47.3458 10.9902C47.3477 10.9575 47.3361 10.9445 47.3097 10.9464ZM47.7336 13.5183C47.4034 13.543 46.6016 14.1005 46.4748 14.438C46.2493 15.0382 46.378 15.15 46.7682 14.6895C46.9385 14.488 47.1743 14.323 47.2944 14.323C47.4953 14.323 47.9682 13.6431 47.8408 13.5405C47.8092 13.5196 47.7709 13.5117 47.7336 13.5183ZM42.9929 14.9467C42.9432 14.9483 42.8938 14.9557 42.8458 14.9689C42.5592 15.0443 42.6265 15.1482 43.2967 15.6637C43.731 15.9981 44.2376 16.2849 44.4196 16.2991C44.6015 16.3133 44.7442 16.3819 44.7442 16.4573C44.7442 16.5327 44.8331 16.5995 44.9335 16.5995C45.034 16.5995 45.0952 16.4227 45.064 16.2057C45.0168 15.8646 44.9182 15.817 44.354 15.8664C43.8523 15.9103 43.7028 15.8602 43.7028 15.6476C43.7037 15.6123 43.6976 15.5773 43.6849 15.5444C43.6722 15.5116 43.6533 15.4815 43.6291 15.4561C43.6049 15.4306 43.5759 15.4103 43.5439 15.3962C43.5119 15.382 43.4774 15.3744 43.4425 15.3738C43.3755 15.3756 43.3106 15.3506 43.2618 15.3043C43.213 15.258 43.1844 15.1941 43.1821 15.1265C43.1821 15.0079 43.1178 14.9448 42.9929 14.9454V14.9467ZM45.0046 17.4537L44.5984 17.6564C44.3389 17.7697 44.0518 17.802 43.7739 17.7491C43.5362 17.6873 43.3561 17.7195 43.3561 17.8202C43.3546 17.8658 43.3708 17.9102 43.4012 17.9439C43.4317 17.9776 43.4739 17.998 43.5191 18.0007C43.6582 18.0117 43.795 18.0432 43.9252 18.094C44.0606 18.1466 44.354 18.0223 44.5862 17.8202L45.0046 17.4537ZM43.1007 17.8863C43.0334 17.911 42.9724 17.9503 42.9218 18.0013C42.7276 18.1639 42.6615 18.1663 42.6615 18.0124C42.6615 17.8987 42.5763 17.8616 42.4673 17.9302C42.3282 18.0168 42.365 18.128 42.5849 18.2918C43.0333 18.6213 43.1821 18.5854 43.1821 18.1546C43.1821 17.9599 43.1668 17.8765 43.1007 17.8863ZM40.4868 18.5267C40.3373 18.5267 40.2595 18.6058 40.3183 18.7022C40.4574 18.9285 40.752 18.9285 40.752 18.7022C40.752 18.6052 40.6363 18.5267 40.4868 18.5267ZM44.5709 21.3298C44.4753 21.3298 44.3975 21.7235 44.3975 22.2056C44.3975 23.0932 44.4232 23.1686 44.6297 22.9603C44.8159 22.7724 44.7632 21.3298 44.5709 21.3298ZM45.8953 23.6662C45.834 23.6557 45.7856 23.694 45.7856 23.7694C45.7855 23.8169 45.8036 23.8626 45.8359 23.8971C45.8683 23.9316 45.9126 23.9523 45.9596 23.9548C46.1813 23.9548 46.1813 23.8312 45.9596 23.6921C45.9401 23.6791 45.9182 23.6707 45.8953 23.6662ZM44.4943 24.037C44.4839 24.037 44.4686 24.0513 44.4563 24.0809C44.4091 24.1984 44.4079 24.4345 44.4508 24.6063C44.4937 24.7781 44.5341 24.6817 44.5378 24.3924C44.5415 24.1767 44.5255 24.0401 44.4943 24.0383V24.037ZM46.6536 24.1298C46.5581 24.1298 46.4803 24.1631 46.4803 24.2052C46.4803 24.2472 46.5581 24.3331 46.6536 24.3906C46.7492 24.4481 46.827 24.4153 46.827 24.3139C46.8275 24.2666 46.8097 24.221 46.7773 24.1868C46.7449 24.1526 46.7005 24.1326 46.6536 24.131V24.1298ZM47.5198 24.4815C47.4243 24.4815 47.3465 24.5148 47.3465 24.5569C47.3465 24.5989 47.4243 24.6848 47.5198 24.7423C47.6154 24.7998 47.6932 24.767 47.6932 24.665C47.6939 24.6176 47.6761 24.5718 47.6437 24.5375C47.6112 24.5032 47.5668 24.4831 47.5198 24.4815ZM51.134 24.487C50.9825 24.5121 50.8468 24.5962 50.7561 24.7213C50.4032 25.17 49.8201 25.2293 49.4972 24.8449C49.2112 24.5086 48.8032 24.5037 49.0072 24.8399C49.0629 24.929 48.9882 25.0044 48.8461 25.0044C48.7039 25.0044 48.5355 24.9259 48.4785 24.8294C48.3382 24.6001 48.0448 24.5983 48.0448 24.8294C48.0448 24.9271 48.2598 25.094 48.522 25.1954C48.7842 25.2967 49.4452 25.4197 49.9873 25.4686C50.848 25.5471 50.9938 25.5174 51.1585 25.2059C51.2608 25.0112 51.3423 24.7682 51.3423 24.6644C51.3399 24.534 51.2535 24.4747 51.134 24.487ZM35.207 33.7634C35.1596 33.7624 35.1138 33.7803 35.0794 33.8131C35.045 33.846 35.0248 33.8912 35.0232 33.939C35.0232 34.1627 35.1457 34.1627 35.2835 33.939C35.3436 33.8425 35.3111 33.7634 35.207 33.7634ZM49.7178 35.865C49.6099 35.865 49.817 36.0226 50.1723 36.2148C50.8026 36.5547 51.1653 36.6512 51.1653 36.4775C51.1653 36.3693 49.9732 35.865 49.7178 35.865ZM34.7298 43.3439C34.5613 43.3361 34.3927 43.3581 34.2317 43.4088C33.9941 43.5034 34.1092 43.5417 34.6324 43.5504C35.0391 43.5578 35.3705 43.5331 35.3705 43.4966C35.3718 43.4064 35.0508 43.3489 34.731 43.347L34.7298 43.3439ZM30.8472 44.2896C30.7803 44.287 30.7136 44.2983 30.6512 44.323C30.5122 44.3792 30.5575 44.4176 30.7603 44.4262C30.944 44.4349 31.0451 44.391 30.9875 44.3335C30.9467 44.3053 30.8979 44.291 30.8485 44.2927L30.8472 44.2896ZM30.8037 48.6522C30.7928 48.6506 30.7816 48.6506 30.7707 48.6522C30.6751 48.6522 30.4809 48.7276 30.337 48.8221C30.193 48.9167 30.1532 48.9921 30.25 48.9921C30.3468 48.9921 30.5416 48.9148 30.6837 48.8221C30.8099 48.743 30.8577 48.6713 30.805 48.6552L30.8037 48.6522ZM61.0395 55.7312C60.9562 55.7195 60.9335 55.756 60.9782 55.8314C61.0067 55.8786 61.0453 55.9189 61.0912 55.9491C61.1371 55.9794 61.1891 55.9989 61.2434 56.0063C61.4934 56.0063 61.4413 55.8752 61.1411 55.759C61.1082 55.7465 61.0742 55.7372 61.0395 55.7312ZM58.2345 57.2375L57.8387 57.6646L57.4479 58.0905L57.1496 57.6319C56.8788 57.2128 56.8433 57.2042 56.6828 57.4897C56.5542 57.7227 56.4745 57.737 56.3734 57.5775C56.2724 57.418 56.2068 57.4638 56.1235 57.7295C56.0059 58.1066 55.6794 58.2568 55.6794 57.9329C55.6794 57.8365 55.4644 57.7561 55.2022 57.758H54.725L55.2457 58.0361C55.5808 58.2147 56.0298 58.2796 56.5039 58.2271C56.9082 58.1832 57.1967 58.2203 57.1447 58.3044C57.0075 58.5281 57.2672 58.4861 57.8008 58.2061C58.0727 58.0627 58.2908 58.0312 58.3214 58.1288C58.3521 58.2265 58.5193 58.2444 58.689 58.1783C58.9775 58.0676 58.9702 58.0312 58.6143 57.6473L58.2345 57.2375ZM54.1969 57.4279C54.1625 57.4259 54.128 57.4295 54.0946 57.4384C53.9642 57.4823 54.0444 57.562 54.2784 57.6238C54.5669 57.6992 54.6343 57.6764 54.5057 57.5466C54.4216 57.4701 54.3126 57.4272 54.1994 57.4261L54.1969 57.4279ZM55.9606 64.6467C55.8993 64.6362 55.8509 64.6751 55.8509 64.7505C55.8508 64.798 55.8689 64.8437 55.9012 64.8782C55.9336 64.9128 55.9779 64.9334 56.0249 64.9359C56.2466 64.9359 56.2466 64.8123 56.0249 64.6732C56.0059 64.6605 55.9847 64.6515 55.9624 64.6467H55.9606Z" fill="white"/>
<path d="M21.333 0L21.3556 0.427105C21.3642 0.661982 21.3832 1.37032 21.3991 2.00325L21.4199 3.1523L22.0601 2.48475C22.7995 1.7078 22.8987 1.67628 22.895 2.21093C22.895 2.42789 22.5887 2.93658 22.2285 3.34391C21.6454 3.996 21.5639 4.20183 21.529 5.06778C21.5014 5.72173 21.5535 6.01409 21.6748 5.93806C21.7759 5.87625 21.8536 5.70998 21.8536 5.57153C21.8536 5.43308 21.9321 5.31997 22.027 5.31997C22.122 5.31997 22.201 5.01463 22.201 4.64006C22.201 3.86249 22.6384 3.31918 22.911 3.75309C22.9992 3.89154 23.0335 4.09737 22.9924 4.21295C22.9005 4.46823 23.4004 4.30196 23.7355 3.96571C23.8617 3.84209 24.0651 3.74134 24.1919 3.74134C24.6605 3.74134 24.5839 4.23582 24.013 4.89595C23.3324 5.68217 23.2963 5.83855 23.7471 5.95784C23.9677 6.01594 24.0442 6.15193 23.9854 6.37938C23.888 6.75581 23.4231 6.82318 23.107 6.503C22.8705 6.26442 22.862 6.2774 22.824 6.93567C22.7909 7.48454 22.824 7.49752 23.4157 7.15448C23.9971 6.81885 24.1104 6.82689 24.1104 7.22556C24.1104 7.41099 23.8568 7.7633 23.5462 8.00807C23.1223 8.34246 23.0757 8.43085 23.3514 8.35853C23.5897 8.29672 23.7545 8.35853 23.8219 8.53902C23.9713 8.93213 24.0926 8.89937 25.2486 8.13973C25.8164 7.76887 26.3665 7.49196 26.4688 7.53214C26.8315 7.67183 26.6011 8.33999 26.0958 8.62122L25.5855 8.89999L26.0523 8.955C26.3059 8.9859 26.5558 9.11941 26.6036 9.25045C26.701 9.50634 26.2667 9.75729 26.0063 9.59535C25.92 9.54095 25.8434 9.58051 25.8434 9.68312C25.8434 9.78572 25.7062 9.87225 25.5371 9.87967C25.3166 9.89018 25.3012 9.91861 25.4758 9.98969C25.6504 10.0608 25.6235 10.1621 25.3178 10.3945L24.9116 10.7005L25.6369 10.8241C26.3855 10.9515 26.5558 11.2333 26.1092 11.6066C25.9408 11.7476 25.7637 11.7618 25.5677 11.6505C25.2394 11.4651 24.6237 11.5695 24.6237 11.8094C24.6237 11.8947 24.4675 11.9682 24.2764 11.9682C24.0853 11.9682 23.9291 11.8891 23.9291 11.7927C23.9291 11.6963 23.7539 11.6202 23.5389 11.6233L23.148 11.6289L23.5768 11.9843C23.9101 12.2643 23.9517 12.3731 23.7661 12.488C23.5058 12.6506 23.0561 12.5319 22.8338 12.2408C22.7523 12.1357 22.7315 12.2674 22.7903 12.5363C22.8773 12.9368 22.8375 13.0178 22.5453 13.0178C22.3523 13.0178 22.1893 12.9195 22.1826 12.7989C22.1722 12.6494 22.1391 12.6586 22.073 12.8261C22.0037 13.0054 21.9149 12.9566 21.7538 12.6512L21.5314 12.2297L21.3146 12.7112C21.1921 12.9757 21.1516 13.2483 21.2227 13.3188C21.2937 13.3892 21.9137 13.4751 22.6059 13.5104C23.7618 13.5722 23.9285 13.5339 24.6942 13.0449C25.4599 12.556 26.0112 12.4769 26.0112 12.8533C26.0112 12.9362 25.7962 13.1296 25.534 13.2804L25.0568 13.5543L25.6645 13.4393C26.2648 13.328 27.2768 12.8027 27.7191 12.3663C27.8772 12.2303 28.0757 12.1513 28.2833 12.1419C28.6374 12.1419 28.7299 12.4806 28.4517 12.76C28.3476 12.8651 28.6153 12.9498 29.1789 12.9844C29.6689 13.0147 30.1388 13.0789 30.2154 13.1265C30.7863 13.4826 29.3786 14.1285 28.3599 13.9801L27.6603 13.8819L28.1504 14.1612C28.4475 14.3294 28.6208 14.5574 28.5847 14.7361C28.5014 15.1632 27.7516 15.0198 27.2725 14.4839C27.0502 14.2366 26.7482 14.0704 26.5779 14.113C26.3383 14.1705 26.3696 14.2286 26.7359 14.3813C27.3258 14.6285 27.5047 14.9159 27.1476 15.0538C26.9926 15.1156 26.9025 15.2639 26.9528 15.3888C26.972 15.454 26.9651 15.5243 26.9337 15.5845C26.9022 15.6447 26.8485 15.69 26.7843 15.7108C26.6477 15.7633 26.5344 15.7386 26.5344 15.6564C26.5344 15.513 25.9739 15.2676 25.5542 15.2237C25.4446 15.2114 25.1898 15.0507 24.9901 14.8683C24.7904 14.686 24.6274 14.5951 24.6274 14.665C24.6274 14.8473 25.0072 15.2046 25.4568 15.4481C25.67 15.5637 25.8422 15.7355 25.8422 15.8313C25.8422 16.1626 25.3074 16.2133 24.9796 15.9142C24.6672 15.6267 24.6568 15.6305 24.7469 15.976C24.8786 16.4878 24.5233 16.4371 24.1723 15.8938C23.9517 15.5557 23.8427 15.5019 23.7312 15.675C23.6087 15.8641 23.5615 15.8604 23.4396 15.67C23.3563 15.5421 23.1413 15.4561 22.9624 15.479C22.2616 15.568 21.3415 14.9376 21.3134 14.346C21.298 14.0271 21.2809 14.037 21.1712 14.4177C21.0689 14.7781 21.1541 14.9536 21.6662 15.4191C22.0062 15.7281 22.7688 16.2374 23.3581 16.5508L24.4351 17.13L25.27 16.7096C25.7282 16.4785 26.2024 16.2714 26.3218 16.2485C26.6312 16.1867 26.5895 16.5292 26.2348 16.9495C25.9628 17.2752 25.9628 17.2839 26.2299 17.0731C26.3929 16.9495 26.5926 16.8877 26.674 16.9365C26.7555 16.9853 27.0416 16.9173 27.3093 16.777C27.9482 16.4426 28.1479 16.4599 28.0297 16.8333C27.9537 17.0805 28.0352 17.1343 28.4536 17.1219C28.7397 17.1133 29.0141 17.0601 29.0662 17.0082C29.2781 16.7943 29.8368 17.1083 29.8368 17.4409C29.8368 17.7085 29.7516 17.7703 29.4741 17.6968C29.125 17.6053 29.1231 17.6139 29.4129 17.9384C29.7265 18.2883 29.6763 18.3359 29.0172 18.2833C28.7145 18.2586 28.6496 18.3167 28.7409 18.551C28.8346 18.7982 28.774 18.8384 28.4144 18.7698C28.0548 18.7012 27.9948 18.742 28.0621 19.0046C28.1559 19.3638 28.045 19.4021 27.6125 19.1697C27.18 18.9373 26.6495 19.6642 26.9999 19.9961C27.1941 20.1815 27.2554 20.1728 27.3295 19.9732C27.3816 19.8366 27.6891 19.726 28.0291 19.7105C28.369 19.6951 28.5969 19.7581 28.5449 19.8422C28.4928 19.9262 28.6061 19.954 28.7948 19.904C29.234 19.7884 29.2456 20.0542 28.8175 20.3243C28.5884 20.4677 28.5185 20.6605 28.5779 20.9758C28.6821 21.532 28.7096 21.532 29.3486 20.9931C29.6316 20.7514 29.9765 20.5555 30.1118 20.5555C30.4034 20.5555 30.4181 20.6414 30.1939 21.0629C30.0101 21.4066 30.1259 21.4152 31.4417 21.163C31.8706 21.079 32.0923 21.1012 32.0923 21.2279C32.0923 21.4535 31.1918 21.9567 30.7802 21.9567C30.5425 21.9567 30.5284 21.9999 30.7042 22.2138C30.88 22.4277 30.8708 22.4957 30.6656 22.5748C30.5352 22.6274 30.3947 22.6496 30.2546 22.6397C29.8919 22.5711 29.6659 22.6712 29.7032 22.8758C29.7296 23.0087 29.563 23.0897 29.2695 23.0822C28.902 23.0754 28.7905 23.1558 28.7868 23.4327C28.7819 23.7794 28.7678 23.7764 28.4401 23.3783C28.1693 23.0507 28.0977 23.0266 28.0977 23.2578C28.0977 23.4185 28.0199 23.505 27.9243 23.4432C27.8288 23.3814 27.6793 23.5378 27.5825 23.7881C27.4857 24.0384 27.2927 24.2826 27.1488 24.3401C27.0048 24.3975 26.8829 24.5502 26.8829 24.685C26.8829 24.8197 26.7604 24.9322 26.6018 24.9322C26.4431 24.9322 26.2183 25.0657 26.0964 25.2338C25.8881 25.5194 25.8513 25.5175 25.4666 25.1899L25.0605 24.845L25.3668 25.211C25.5542 25.4353 26.1325 25.6888 26.8652 25.8674C28.3923 26.2382 28.7642 26.2283 29.3872 25.8136C29.9648 25.4279 30.2478 25.4996 30.0916 25.9935C30.0046 26.2704 30.0708 26.3334 30.4818 26.3334C30.7563 26.3334 31.0583 26.2549 31.1557 26.1585C31.2721 26.0392 31.4405 26.0639 31.6641 26.2283C31.9869 26.4669 31.9784 26.4892 31.4417 26.7976C31.0374 27.0306 30.9088 27.2093 30.9817 27.4386C31.043 27.6438 30.9958 27.7433 30.8451 27.7223C30.3434 27.6543 30.1486 27.7396 30.2442 27.9918C30.4089 28.43 29.7755 28.6383 29.2947 28.3039C28.9773 28.0833 28.932 28.0728 29.0882 28.2705C29.3816 28.6383 29.0986 29.0234 28.6441 28.8781C27.9862 28.668 27.8091 29.0018 28.453 29.2391C29.2812 29.5401 30.1069 29.5352 30.4181 29.223C30.7599 28.8763 31.2911 28.8732 31.1606 29.2181C31.0791 29.4301 31.201 29.4579 31.8375 29.3701C32.7717 29.241 32.8893 29.5333 32.0286 29.8467C31.6102 29.9994 31.4626 30.1465 31.5183 30.3616C31.6102 30.7188 31.0619 30.9179 30.6399 30.6787C30.4089 30.5489 30.352 30.5995 30.352 30.9463C30.352 31.293 30.2876 31.3617 29.9771 31.2813C29.6665 31.2009 29.6267 31.2337 29.7235 31.4877C29.8202 31.7418 29.7688 31.7875 29.4895 31.714C29.2965 31.6627 29.1372 31.6911 29.1372 31.7758C29.1372 32.0848 28.7697 31.9284 28.3072 31.4309C27.7503 30.8319 27.4202 30.699 27.011 30.9111C26.535 31.1583 26.655 31.3573 27.2278 31.2733C27.8245 31.1843 27.9133 31.45 27.4826 32.0718C27.2309 32.4347 27.2309 32.4606 27.5537 32.4606C27.78 32.476 27.9943 32.5686 28.1614 32.7233C28.3035 32.8673 28.5363 32.986 28.6821 32.986C28.8279 32.986 28.9884 33.0596 29.0447 33.1492C29.1011 33.2388 29.4582 33.3155 29.8258 33.3087C30.1933 33.3019 30.6013 33.3631 30.7263 33.4403C30.8512 33.5176 31.2059 33.5639 31.5128 33.5435C31.9747 33.512 32.0788 33.5751 32.1254 33.9057C32.1652 34.1913 32.3006 34.3069 32.6155 34.3211C32.8194 34.3271 33.0226 34.3494 33.2231 34.3879C33.381 34.4131 33.5415 34.4166 33.7003 34.3984C33.867 34.3804 34.0066 34.4367 34.0066 34.522C34.0066 34.7532 33.0467 35.2717 32.613 35.2717C32.2326 35.2717 32.2259 35.2804 32.5315 35.6216C32.8372 35.9628 32.8378 35.972 32.3906 35.972C32.0507 35.972 31.9618 36.0369 32.0384 36.2403C32.1217 36.461 32.0488 36.4906 31.6427 36.3923C31.4495 36.3424 31.2536 36.3044 31.0558 36.2786C30.5143 36.2891 30.3893 36.3485 30.4708 36.5623C30.6515 37.0389 30.2019 37.0265 29.9434 36.5469C29.6983 36.0895 29.6849 36.0839 29.6781 36.4535C29.6745 36.6693 29.6083 36.8528 29.5372 36.8633C28.4769 37.0197 28.3029 36.9684 28.0897 36.4486L27.8729 35.9232L27.7197 36.338L27.569 36.7601L27.2321 36.3225C26.8989 35.8843 26.8989 35.8843 26.8958 36.2786C26.8903 36.8096 26.5815 36.7793 26.4462 36.2347C26.3849 35.9931 26.2624 35.7971 26.168 35.7971C26.0737 35.7971 26.0608 35.8812 26.1246 35.9881C26.2079 36.1229 26.0743 36.1457 25.6804 36.0598C25.262 35.9671 25.1322 35.9881 25.1904 36.1525C25.2963 36.4746 26.3849 37.0228 26.9209 37.0228C27.1745 37.0228 27.4177 37.1211 27.4624 37.2416C27.5145 37.3751 27.8533 37.4518 28.3476 37.4431C28.7887 37.4363 29.1495 37.4907 29.1495 37.5667C29.1495 37.903 28.5473 38.2689 28.0701 38.2182C27.7871 38.1885 27.5427 38.2318 27.5286 38.3214C27.482 38.6138 28.4989 38.777 30.9725 38.8777C33.7597 38.9865 34.8777 39.1107 34.8777 39.2999C34.8777 39.3716 35.0737 39.3944 35.3114 39.3493C35.5564 39.2999 35.7457 39.3456 35.7457 39.4525C35.7457 39.6998 35.1779 40.0088 34.7197 40.0088C34.5236 40.0088 34.357 40.088 34.357 40.1838C34.3595 40.2312 34.38 40.2759 34.4142 40.3085C34.4484 40.3412 34.4937 40.3594 34.5408 40.3593C34.6419 40.3593 34.8949 40.5219 35.105 40.7252L35.4854 41.0961L34.9212 41.0188C34.5481 40.9663 34.357 41.0114 34.357 41.1554C34.357 41.2852 34.218 41.3359 34.0097 41.279C33.8155 41.2283 33.6624 41.2735 33.6624 41.3822C33.6624 41.666 33.2219 41.6239 32.9683 41.3204C32.8501 41.1752 32.6767 41.0577 32.5781 41.0577C32.4795 41.0577 32.5223 41.1981 32.6804 41.3748C32.8384 41.5516 32.9683 41.7457 32.9683 41.8124C32.9683 41.9979 32.3073 41.9528 32.1873 41.7587C32.0157 41.4762 31.7866 41.5553 31.6666 41.9336C31.5275 42.3768 31.3296 42.3731 30.7018 41.9212L30.1964 41.5603L30.306 42.0961C30.4359 42.7569 30.1223 42.8094 29.4153 42.2507C28.9522 41.8829 28.94 41.8829 29.1219 42.2278C29.3388 42.6357 29.2346 42.8286 28.8738 42.6883C28.7384 42.6357 28.5112 42.6883 28.3684 42.8119C28.1902 42.9603 28.1081 42.9695 28.1081 42.8329C28.1081 42.7241 27.9923 42.6364 27.8477 42.6364C27.8145 42.6353 27.7815 42.6408 27.7504 42.6527C27.7193 42.6646 27.6909 42.6825 27.6667 42.7055C27.6425 42.7284 27.6231 42.756 27.6094 42.7866C27.5958 42.8171 27.5883 42.8501 27.5874 42.8836C27.5874 43.0536 27.433 43.1185 27.1102 43.0814C25.3037 42.875 27.6395 43.9344 29.7443 44.2743C31.1171 44.4968 31.2543 44.4876 31.7045 44.1866C31.9722 44.0079 32.2847 43.8645 32.4041 43.8645C32.7637 43.8645 32.6491 44.2131 32.2308 44.3949C31.9441 44.5185 32.047 44.5333 32.621 44.4443C33.0498 44.3775 33.6011 44.3337 33.8363 44.346C34.0716 44.3584 34.6572 44.2533 35.1276 44.1149C35.5981 43.9764 36.0073 43.8874 36.0385 43.9189C36.2193 44.1006 35.1087 44.8238 34.4869 44.9258L33.7518 45.0463L34.403 45.0673C34.8557 45.0834 35.0535 45.1693 35.0535 45.3529C35.0535 45.4963 34.9163 45.628 34.7472 45.6422C34.5871 45.6556 34.4278 45.6777 34.27 45.7083C34.1304 45.738 33.989 45.7587 33.8467 45.7701C33.663 45.7856 33.6869 45.8554 33.9337 46.0378C34.3625 46.3548 34.1592 46.5823 33.6783 46.3233C33.38 46.162 33.3156 46.1781 33.3156 46.416C33.3156 46.6404 33.1931 46.6861 32.7514 46.6243C32.4423 46.5812 32.1373 46.5115 31.8399 46.416C31.4981 46.2924 31.5036 46.2924 31.835 46.5631C32.1664 46.8339 32.1003 46.9068 31.5367 46.8487C31.3627 46.8314 31.2304 46.9383 31.2304 47.0959C31.2304 47.4705 31.0895 47.4408 30.6791 46.9767L30.3269 46.5829L30.6093 47.0589C30.7624 47.3197 30.8855 47.6151 30.8855 47.7159C30.8855 47.9854 30.0334 47.7857 29.6273 47.4198C29.2867 47.1108 29.2836 47.1188 29.4153 47.5434C29.5991 48.1368 29.8129 48.2617 31.4117 48.7469C32.741 49.1493 32.8207 49.1548 33.5374 48.8779C34.3203 48.5769 35.3984 48.491 35.3984 48.7308C35.3984 48.8081 35.3084 48.9688 35.192 49.0862C35.0511 49.2284 35.2838 49.2055 35.9032 49.0201C36.4104 48.8693 36.9446 48.7889 37.091 48.8445C37.3182 48.9342 37.2974 49.0201 36.9605 49.3823L36.5648 49.8082L37.1498 49.64C37.9045 49.4206 38.8227 49.4206 38.9569 49.64C39.091 49.8595 37.9345 50.344 37.2484 50.3453H36.7001L37.2104 50.7551C37.714 51.1618 37.7084 51.694 37.2055 51.4999C37.0371 51.435 36.9605 51.5401 36.9605 51.8392C36.9605 52.1483 36.8704 52.2719 36.6291 52.2719C36.4042 52.2892 36.1921 52.3839 36.0281 52.5401C35.8064 52.7627 35.7041 52.7676 35.4088 52.584C35.2146 52.4604 35.0511 52.3003 35.0511 52.228C35.0511 52.1557 34.9138 52.2336 34.7448 52.4035C34.4115 52.7274 34.316 53.1453 34.5763 53.1453C34.6615 53.1453 34.6737 53.2293 34.6094 53.3363C34.5261 53.471 34.6547 53.4957 35.0327 53.4135C35.3782 53.3363 35.5742 53.3573 35.5742 53.4753C35.5742 53.5841 35.913 53.6682 36.3553 53.6682C37.1694 53.6682 37.3225 53.819 36.8759 54.1936C36.7026 54.3388 36.3344 54.379 35.7911 54.3073L34.9671 54.2041L35.6128 54.549C36.0606 54.7888 36.2254 54.9779 36.1543 55.1671C36.09 55.337 35.946 55.3933 35.7702 55.3197C35.5948 55.2495 35.413 55.1967 35.2275 55.1621C35.0848 55.1374 35.0639 55.1535 35.184 55.1955C35.6232 55.3475 35.3953 55.6282 34.9237 55.5175C34.5818 55.4372 34.5193 55.4557 34.7013 55.5793C35.1595 55.8884 34.7515 55.9774 34.2014 55.69C33.9062 55.5361 33.6648 55.4835 33.6648 55.5744C33.6648 55.6652 33.7622 55.7777 33.8823 55.8216C34.0023 55.8655 34.0385 55.965 33.9637 56.0454C33.889 56.1257 33.6042 56.1072 33.3285 56.0015C32.9187 55.8457 32.8384 55.8562 32.9168 56.0559C32.983 56.2327 32.9224 56.2642 32.6896 56.1795C32.417 56.0831 32.4017 56.1059 32.5909 56.3112C32.7692 56.5021 33.3665 56.5473 35.3243 56.5195C36.8398 56.4966 37.831 56.5491 37.831 56.6505C37.831 56.7519 37.7084 56.8205 37.5602 56.8205C37.412 56.8205 37.1779 56.9311 37.0444 57.0677C36.8343 57.2797 36.8398 57.3285 37.0726 57.4182C37.2196 57.4757 37.5878 57.5214 37.8898 57.5232C38.5287 57.5232 38.9661 57.7544 38.8129 58.0047C38.6242 58.3138 37.7611 58.3688 37.0499 58.1185C36.1004 57.7859 36.0483 57.8051 36.5396 58.299C37.1522 58.9171 37.1069 59.2879 36.4471 59.1025C36.2082 59.037 35.9758 58.9491 35.7531 58.8398C35.6545 58.778 35.5693 58.8732 35.5534 59.0462C35.5375 59.2193 35.5136 59.4523 35.5032 59.5667C35.4906 59.6872 35.4436 59.8015 35.3678 59.8955C35.2306 60.034 34.1855 59.4418 34.1855 59.2286C34.1855 59.1464 34.1144 59.1266 34.0225 59.1847C33.9166 59.2514 33.9166 59.4474 34.0225 59.7311C34.1144 59.9746 34.1855 60.2528 34.1855 60.3492C34.1855 60.5804 33.3646 59.9814 32.5419 59.1513C31.9294 58.5332 31.8411 58.6364 32.4121 59.3089C32.5524 59.4752 32.6148 59.7416 32.5524 59.906C32.4537 60.1687 32.3961 60.1533 32.001 59.7824L31.5496 59.3676L31.6108 59.8053C31.6641 60.2064 31.7823 60.2589 33.0583 60.4728C33.9539 60.6218 34.5408 60.644 34.7123 60.5346C35.1479 60.2651 36.0955 60.1019 36.0955 60.3004C36.0955 60.398 35.9583 60.5136 35.7892 60.5575C35.6202 60.6014 35.8762 60.5995 36.3534 60.5575C37.0511 60.4957 37.1798 60.5229 37.0046 60.6996C36.6732 61.0378 36.7479 61.1638 37.2214 61.0705C37.7819 60.9623 38.5691 61.1638 38.4362 61.3796C38.3792 61.4723 38.155 61.5495 37.9382 61.5495C37.1957 61.5495 37.2998 61.7894 38.204 62.1571C39.7434 62.7802 39.4065 63.2444 37.8236 62.6825C37.0217 62.3969 36.7075 62.4458 37.298 62.7629C37.4959 62.8716 37.6551 63.0837 37.6551 63.2339C37.6551 63.4459 37.5498 63.4811 37.1939 63.3933C36.7841 63.2901 36.7547 63.3062 36.9562 63.5509C37.423 64.1202 36.928 64.1221 36.1525 63.5509C35.7911 63.2852 35.7776 63.2882 35.8762 63.6746C35.9699 64.0405 35.9509 64.0584 35.6869 63.8396C35.4229 63.6208 35.4076 63.6325 35.5136 63.9267C35.6195 64.2209 35.5748 64.2074 35.1975 63.8649C34.757 63.4588 34.4844 63.4941 34.6511 63.9267C34.7828 64.2753 34.3662 64.2296 33.7065 63.8235C33.3922 63.6294 33.1423 63.5627 33.1423 63.6696C33.1423 63.7883 32.9585 63.8198 32.6651 63.7518C32.3422 63.6783 32.273 63.6937 32.4482 63.8006C32.5922 63.8884 33.1392 64.0479 33.663 64.1561C34.7932 64.3928 35.1454 64.5838 34.9702 64.8693C34.8508 65.0634 34.618 65.0424 33.5766 64.7587C33.3107 64.687 33.361 64.797 33.7934 65.2192C34.104 65.5208 34.3576 65.8045 34.3576 65.8533C34.3576 66.027 33.3922 65.8113 32.839 65.5134C32.2295 65.1877 32.1376 65.2878 32.5401 65.8224C32.8923 66.2934 32.8599 66.5023 32.4482 66.3917C32.2228 66.3299 32.1009 66.3917 32.1009 66.5506C32.1009 66.8782 31.9416 66.8596 31.5367 66.4887C31.2157 66.1964 31.2022 66.1982 31.261 66.5326C31.3529 67.0667 30.3899 66.9035 29.8778 66.3015L29.4766 65.8323L29.5893 66.401C29.7406 67.1544 29.3051 67.1736 28.6294 66.4449C28.3623 66.1562 28.121 65.9195 28.0879 65.9195C28.0548 65.9195 28.015 66.1228 28.0015 66.3732C27.9617 67.0617 27.6787 67.2472 27.3172 66.8213C27.0312 66.485 26.9914 66.4801 26.7794 66.7595C26.5674 67.0389 26.5466 67.029 26.4498 66.6767C26.3886 66.4492 26.2483 66.3318 26.1074 66.3861C25.9665 66.4405 25.8299 66.3076 25.7552 66.0097C25.6737 65.6858 25.5941 65.6049 25.5003 65.7575C25.4256 65.8812 25.2014 66.0048 25.0005 66.0357C24.7193 66.0796 24.5527 65.9201 24.2574 65.3088C23.877 64.5195 23.4764 64.2148 23.6828 64.8712C23.8164 65.2952 23.7159 65.3039 23.1572 64.933C22.9208 64.7772 22.7229 64.483 22.7125 64.276C22.6953 63.9768 22.6727 63.9669 22.6083 64.2141C22.4766 64.7235 22.2077 64.3699 22.2022 63.6764C22.1973 63.1529 22.1661 63.0892 22.0233 63.3383C21.9637 63.4285 21.8841 63.5035 21.7907 63.5571C21.6973 63.6108 21.5928 63.6417 21.4855 63.6474C21.1437 63.6474 21.1314 63.7092 21.2405 65.0072C21.3189 65.9108 21.499 66.6482 21.782 67.2119C21.9486 67.5426 22.0883 67.8368 22.1569 68H17.8388C17.6477 67.8461 17.7347 67.5741 17.9325 67.0963C18.2388 66.3546 18.3577 64.8353 18.1163 64.755C18.0207 64.7235 17.81 64.9299 17.6391 65.2204C17.3212 65.76 16.9328 65.9621 17.1129 65.4887C17.3181 64.9491 16.9953 65.2414 16.7607 65.8107C16.5732 66.2625 16.4225 66.3973 16.1101 66.375C15.8841 66.3571 15.5876 66.4257 15.4522 66.5271C15.2764 66.66 15.1882 66.655 15.1379 66.5061C15.0926 66.3676 14.9542 66.4115 14.7318 66.6377C14.284 67.0877 14.0616 67.0667 14.1676 66.5833C14.2178 66.3521 14.1921 66.2644 14.1064 66.375C13.9067 66.634 13.3529 66.8213 13.3529 66.6321C13.3529 66.4554 12.3948 66.5184 11.8931 66.7249C11.6291 66.8336 11.5807 66.8003 11.6658 66.5778C11.7271 66.422 11.683 66.2644 11.5684 66.2205C11.4104 66.163 11.4092 66.0857 11.5739 65.9114C11.9678 65.4911 11.8049 65.4368 11.1556 65.7693C10.4388 66.1401 10.2367 66.0845 10.5859 65.6222C10.7696 65.3749 10.7751 65.3545 10.5914 65.5171C10.4689 65.6314 10.2563 65.684 10.1264 65.6327C9.99655 65.5814 9.88139 65.6104 9.88139 65.6945C9.88139 65.7786 9.77541 66.0035 9.64371 66.189C9.43543 66.4764 9.35886 66.4887 9.11076 66.2817C8.86267 66.0746 8.79161 66.0963 8.54658 66.4517L8.2654 66.8565L8.10736 66.4344C7.9634 66.0437 7.93583 66.0351 7.72756 66.3206C7.45312 66.6952 7.32999 66.7008 6.99246 66.3589C6.78051 66.1451 6.7701 66.0388 6.93856 65.8336C7.05495 65.692 7.09966 65.5764 7.03534 65.5764C6.97102 65.5764 7.01329 65.3972 7.12233 65.1821C7.29263 64.8508 7.2283 64.873 6.73885 65.3187C5.65765 66.3027 5.58659 66.3398 5.27908 66.0295C5.12654 65.8756 5.06222 65.6531 5.13328 65.535C5.20434 65.417 5.11613 65.43 4.92684 65.5839C4.00797 66.3256 3.07991 66.4733 3.70658 65.7748C3.98776 65.4596 3.97918 65.4349 3.52771 65.3212L3.05541 65.1975L3.56446 64.7828C4.23095 64.2327 3.87505 64.2308 2.92003 64.7828C2.50348 65.0208 2.06242 65.2155 1.94297 65.2204C1.59257 65.2204 1.69303 64.9441 2.11633 64.7389C2.46917 64.5671 2.44099 64.5461 1.81004 64.5356C1.42289 64.5288 0.952423 64.4119 0.76865 64.2679C0.447659 64.0207 0.45256 64.0102 0.947525 64.0052C1.69059 63.9966 4.3357 63.5108 4.8858 63.2821C5.55964 63.0014 5.68767 62.5743 5.02118 62.8284C4.43617 63.0509 4.13968 62.8667 4.57154 62.5496C4.82148 62.3642 4.74001 62.3432 4.07719 62.3957C3.23183 62.4637 3.05112 62.2486 3.68147 61.9247C4.01961 61.751 3.96264 61.73 3.22632 61.7671C2.23211 61.8159 1.95216 61.4865 2.80793 61.2726L3.37763 61.1305L2.81344 61.0687C2.15186 60.9862 2.09386 60.8053 2.63947 60.526C2.95924 60.3615 2.82325 60.3405 1.90437 60.4172C0.866665 60.5049 0.807858 60.4907 1.11843 60.2423C1.30221 60.0933 1.59012 59.974 1.75858 59.974C1.92704 59.974 2.11081 59.8869 2.17513 59.7818C2.24803 59.6625 2.14083 59.6013 1.88354 59.6242C1.15825 59.686 0.689629 59.6242 0.689629 59.4696C0.689629 59.3856 1.24095 59.2632 1.90989 59.1964C2.57882 59.1297 3.09155 59.011 3.04316 58.9337C2.99477 58.8565 2.49612 58.6865 1.93255 58.5629C0.8685 58.3249 0.194664 57.9689 0.408455 57.7538C0.515656 57.6432 1.48292 57.8026 2.7724 58.1475C3.16813 58.2526 3.15955 58.2211 2.61435 57.7482C1.7206 56.9707 2.22536 56.8903 3.51546 57.6067C4.80555 58.3231 5.5529 58.3824 6.98695 57.8848C8.61457 57.3193 11.2548 55.9687 11.4508 55.5979C11.6958 55.1386 11.5568 55.151 11.1145 55.6294C10.9197 55.8414 10.7568 55.9483 10.7568 55.8711C10.7568 55.7938 10.6404 55.8272 10.4964 55.9483C10.2808 56.127 10.2361 56.1109 10.2361 55.8482C10.2361 55.5855 10.1472 55.617 9.69455 56.046L9.15119 56.5609L9.24308 55.9836C9.34722 55.4273 9.34048 55.4211 8.87553 55.6226C8.61718 55.7313 8.37081 55.867 8.14044 56.0275C7.4666 56.5491 7.3888 56.5386 7.51193 55.9224C7.60382 55.4582 7.58483 55.3772 7.41821 55.5453C7.1162 55.8507 6.40438 55.8154 6.40438 55.4965C6.40438 55.1776 6.12505 55.1535 5.9376 55.4687C5.86103 55.5979 5.58169 55.8395 5.31951 56.0095C4.92562 56.2673 4.8423 56.2759 4.8423 56.0658C4.8423 55.9242 4.99852 55.6702 5.18964 55.4965C5.38076 55.3228 5.53697 55.0954 5.53697 54.9977C5.53697 54.9 5.49348 54.8741 5.43406 54.9359C5.37464 54.9977 5.20312 54.9217 5.05426 54.7709C4.86681 54.5817 4.5838 54.5236 4.13539 54.5854C3.68698 54.6472 3.45359 54.5996 3.39294 54.4365C3.32311 54.2578 3.16506 54.2405 2.72952 54.3666C1.19807 54.8098 0.917507 54.3048 2.39444 53.764C3.39294 53.3999 3.51791 53.2139 2.58372 53.4858C1.39655 53.8289 -0.14838 53.568 0.506466 53.1354C0.650425 53.0389 1.11905 52.9499 1.54785 52.9376C2.21066 52.9184 2.25416 52.9005 1.82351 52.8059C1.54602 52.7441 1.28383 52.5853 1.2385 52.4505C1.17112 52.2459 1.44494 52.2231 2.92064 52.3269C4.65608 52.4505 4.68426 52.4505 4.47047 52.1025C4.15316 51.5895 4.37185 51.5005 5.2362 51.7935C5.72958 51.9562 6.25105 52.0139 6.76765 51.9628C7.77105 51.8392 11.0918 50.7161 11.4845 50.3712C11.8925 50.0084 11.8698 49.7562 11.441 49.8947C11.2468 49.9565 11.0943 49.9244 11.0943 49.823C11.0943 49.6339 10.8339 49.6882 9.96592 50.0702C9.67924 50.1938 9.05134 50.3014 8.56679 50.3051C8.08224 50.3088 7.61362 50.3261 7.52541 50.3434C7.11927 50.4225 7.07577 50.3014 7.37777 49.9392C7.59646 49.6765 7.52724 49.7062 7.17807 50.027C6.57774 50.5746 6.40745 50.6203 6.40745 50.2402C6.40745 50.009 6.35232 50.009 5.96333 50.2668C5.70115 50.4398 5.46714 50.4942 5.39914 50.3978C5.33115 50.3014 5.04997 50.132 4.7639 50.0041C4.26587 49.7834 4.25729 49.7655 4.58012 49.5275C4.97218 49.2389 4.87294 49.2142 4.25362 49.4521C3.91854 49.5801 3.80399 49.5677 3.80399 49.3965C3.80399 49.258 3.36293 49.0757 2.67561 48.9323C2.05629 48.8007 1.54785 48.6233 1.54785 48.538C1.54785 48.4527 1.47496 48.4347 1.37939 48.4941C1.28383 48.5534 1.06882 48.5225 0.902195 48.4279C0.638172 48.279 0.660835 48.2388 1.08046 48.1319C1.44371 48.0404 1.5356 47.9341 1.46087 47.6936C1.38613 47.4532 1.46454 47.3667 1.75919 47.3228C2.04037 47.2808 1.84066 47.1577 1.07555 46.913C-0.109791 46.531 -0.401375 46.1861 0.636333 46.3925C1.59624 46.5817 3.97734 46.6256 3.97734 46.4544C3.9736 46.4117 3.95327 46.3722 3.92077 46.3447C3.88828 46.3171 3.84629 46.3036 3.80399 46.3072C3.75805 46.3068 3.71414 46.2881 3.68172 46.2553C3.64929 46.2224 3.63094 46.1781 3.63062 46.1317C3.63062 46.0353 4.00185 45.9636 4.45516 45.9722C5.59333 45.9951 7.41453 45.6119 7.52541 45.3208C7.58667 45.1582 7.47517 45.0809 7.18359 45.0809C6.94713 45.0809 6.75478 45.0037 6.75478 44.911C6.75478 44.8182 6.63839 44.783 6.49443 44.8393C6.35048 44.8955 6.23409 44.8479 6.23409 44.736C6.23409 44.6013 6.10361 44.6273 5.84878 44.8059C5.60225 44.9675 5.31784 45.0607 5.02424 45.076L4.58503 45.0686L4.98626 44.7305L5.38199 44.3961L4.55194 44.3417L3.717 44.2799L4.32468 43.9857L4.93236 43.6896L4.40125 43.6847C4.22261 43.6773 4.04718 43.6344 3.88506 43.5583C3.72293 43.4823 3.57734 43.3746 3.45665 43.2415C3.23306 42.9998 2.96659 42.8039 2.8649 42.8039C2.76321 42.8039 2.57331 42.6425 2.45386 42.4478C2.13593 41.9348 2.54023 41.8298 3.53874 42.1734C4.61443 42.5443 4.8368 42.5319 4.72592 42.1029C4.61504 41.674 4.64567 41.6777 5.73606 42.0368C6.56366 42.31 6.65064 42.3026 7.97504 41.9225C9.76132 41.4076 10.2195 40.9279 8.84306 41.0083C8.76998 41.011 8.69732 40.9961 8.63114 40.9647C8.56495 40.9333 8.50719 40.8863 8.46265 40.8278C8.3775 40.6881 8.23355 40.7215 7.99219 40.9422C7.71959 41.1894 7.49233 41.2327 6.93856 41.14C6.15078 41.0052 6.10239 40.9385 6.53793 40.5756C6.85035 40.3166 6.73396 40.3234 5.98661 40.6251C5.72136 40.732 5.67603 40.7005 5.76485 40.4656C5.84816 40.2499 5.78017 40.1763 5.51675 40.1763C5.27172 40.1763 5.18474 40.0923 5.24906 39.9242C5.30297 39.7863 5.25641 39.6336 5.14186 39.5848C4.99606 39.523 5.01505 39.4235 5.21782 39.2572C5.48 39.0384 5.46959 38.9877 5.08795 38.6163C4.46128 38.0087 4.57767 37.8826 5.49409 38.178C7.77105 38.9154 8.60783 38.9593 9.16957 38.3585C9.48566 38.0192 9.50465 37.9258 9.29209 37.8436C9.14997 37.7892 8.80202 37.8331 8.51105 37.9438C7.7686 38.2256 7.61055 37.9438 8.22803 37.4394C8.66235 37.0852 8.69176 37.021 8.40201 37.0451C7.79433 37.0976 7.44699 37.0296 7.44699 36.8491C7.44699 36.7527 7.58421 36.6686 7.75328 36.6637C7.99832 36.655 7.99097 36.6217 7.69203 36.5005C7.49049 36.4183 7.27853 36.2273 7.21973 36.0734C7.126 35.8299 7.15847 35.8175 7.496 36.0067C8.10184 36.3503 11.7185 36.2978 12.4806 35.9368C13.0135 35.6846 13.0417 35.6475 12.6821 35.6352C12.3525 35.6234 12.2845 35.5511 12.3611 35.2569C12.4463 34.9299 12.4273 34.9157 12.1669 35.1432C11.7865 35.4708 11.2658 35.655 11.2658 35.4603C11.2658 35.3762 11.1096 35.3447 10.9185 35.3935C10.7274 35.4423 10.5718 35.3991 10.5718 35.2903C10.5718 35.1815 10.377 35.0993 10.1374 35.0993C9.56101 35.0993 9.58612 34.9244 10.26 34.3712L10.8186 33.9119L9.88996 34.059C8.93373 34.2117 8.58639 34.1487 8.76711 33.8507C8.94781 33.5528 8.47919 33.1708 7.95482 33.1708C7.36307 33.1708 7.28098 32.8816 7.84027 32.7592C8.06264 32.7116 7.96891 32.6801 7.62342 32.6943C7.22769 32.7085 7.03167 32.6467 7.05923 32.5088C7.08374 32.3914 7.01941 32.295 6.91344 32.295C6.78112 32.295 6.79092 32.2054 6.93917 32.0199C7.08374 31.8469 7.32816 31.7764 7.61301 31.8345C7.85804 31.8852 7.95972 31.887 7.84027 31.8345C7.43903 31.659 7.61607 31.379 8.05713 31.4896C8.40936 31.5786 8.46327 31.5434 8.37138 31.3042C8.28991 31.0891 8.32605 31.0501 8.4939 31.1571C8.62254 31.2362 8.92576 31.3165 9.17263 31.3375C9.46914 31.3664 9.76289 31.4191 10.0511 31.4952L10.4848 31.6188L10.0076 31.209C9.45626 30.7306 9.3754 30.4506 9.86669 30.7145C10.358 30.9784 10.7053 30.9531 10.4364 30.6811C10.0456 30.2874 10.1999 29.9771 10.5993 30.3523C10.8758 30.5918 11.1818 30.7944 11.5096 30.9549C12.5706 31.463 15.4301 30.7695 15.4301 30.0093C15.4435 29.8267 15.5183 29.6542 15.6421 29.5203C15.7811 29.3806 15.7842 29.3139 15.6574 29.3139C15.5533 29.3139 15.4252 29.4313 15.3713 29.5766C15.3101 29.7429 15.0589 29.8306 14.6975 29.8164C14.3851 29.8059 13.9526 29.8553 13.7376 29.927C13.416 30.0321 13.3468 29.9845 13.3468 29.6854V29.3244L12.755 29.6749C12.3317 29.927 12.1283 29.974 12.0401 29.8269C11.9703 29.7169 12.0224 29.5506 12.1547 29.461C12.3593 29.3207 11.3473 29.3405 10.6563 29.4888C10.5607 29.5086 10.3059 29.4666 10.0872 29.3961C9.71967 29.2774 9.71416 29.2403 9.9647 28.9585C10.2152 28.6766 10.2061 28.6451 9.79685 28.5413C9.29515 28.4177 9.19591 28.0864 9.65596 28.0758C9.84708 28.0721 9.76684 27.9831 9.43911 27.8286C9.07279 27.6442 8.72715 27.4206 8.40813 27.1617L7.90459 26.734L8.538 26.6134C8.89023 26.5467 9.17876 26.4169 9.17876 26.3223C9.17876 26.2277 9.37968 26.1987 9.65596 26.2685C10.0725 26.3736 10.1093 26.3575 9.9163 26.1208C9.58122 25.7098 10.0811 25.5849 10.595 25.9514C10.8346 26.1227 11.3571 26.2506 11.8588 26.2605C12.5424 26.271 12.6398 26.2358 12.3409 26.101C12.0028 25.9484 11.9697 25.8068 12.1191 25.1374C12.1259 25.1059 12.393 25.2443 12.7158 25.4465C13.0386 25.6486 13.563 25.8093 13.8877 25.8093C14.9689 25.8056 16.8317 25.0768 18.0152 24.1942C18.4698 23.853 18.373 23.7825 17.8468 24.0706C17.5723 24.2177 17.5086 24.1942 17.5049 23.9395C17.4994 23.6398 17.4909 23.6379 17.3212 23.934C17.2219 24.1039 17.0712 24.2004 16.9843 24.1478C16.8973 24.0953 16.6283 24.1794 16.387 24.3388C15.9533 24.6256 15.9514 24.6207 15.9478 24.125C15.9478 23.8481 15.8865 23.7115 15.8179 23.8159C15.6648 24.0452 15.0105 24.413 14.7483 24.413C14.6479 24.413 14.5523 24.2344 14.5437 24.0193C14.5266 23.6441 14.5229 23.6484 14.4084 24.0632C14.341 24.303 14.2503 24.4643 14.2068 24.4235C14.1633 24.3827 13.9655 24.4377 13.7676 24.5471C13.4748 24.7047 13.3633 24.6782 13.1709 24.4105C13.0405 24.2282 12.8647 24.1231 12.7856 24.1738C12.7066 24.2245 12.6901 24.0638 12.7525 23.8134C12.8616 23.3771 12.8463 23.3647 12.3899 23.5402C11.8257 23.7553 11.6505 23.6484 11.9556 23.2776C12.1394 23.055 12.121 23.0149 11.8637 23.0149C11.5721 23.0149 11.5758 22.9951 11.8588 22.6799C12.0217 22.4944 12.0824 22.3034 11.9942 22.2472C11.906 22.1909 11.6952 22.2997 11.5268 22.4889C11.2634 22.7831 11.0931 22.809 10.4241 22.6743C10.3874 22.6675 10.4413 22.5569 10.5467 22.427C10.7721 22.1526 10.6385 21.9635 10.2146 21.9635C10.0498 21.9635 9.72886 21.8071 9.50465 21.618L9.09177 21.2731L9.61247 21.2397C9.92715 21.2222 10.2426 21.224 10.5571 21.2452C10.9246 21.2799 10.951 21.2452 10.7513 21.0054C10.3727 20.5431 10.6404 20.5443 11.3099 21.0054C12.0371 21.5042 12.4738 21.5901 12.1296 21.1698C11.9458 20.9455 11.9556 20.9177 12.1951 21.0104C12.5253 21.1383 12.5737 20.9004 12.2754 20.6006C11.8306 20.1506 12.3029 20.2186 12.8512 20.6809C13.9293 21.5939 14.0629 21.6235 15.2813 21.2502C16.5591 20.8614 17.4149 20.3731 17.6734 19.8904C17.8314 19.5943 17.7959 19.5523 17.418 19.5733C17.1803 19.5875 16.9493 19.7204 16.9028 19.8694C16.8562 20.0183 16.6528 20.1494 16.4531 20.1654C16.1597 20.1864 16.1076 20.116 16.1873 19.815C16.2743 19.4787 16.2375 19.4911 15.8767 19.9132C15.6543 20.1741 15.3003 20.3892 15.0853 20.3892C14.7453 20.3892 14.7055 20.323 14.7918 19.8799C14.9241 19.2179 14.5162 19.0337 14.0923 19.5708C13.8025 19.9349 12.8273 20.1889 12.8236 19.9052C12.8236 19.8335 13.0772 19.5653 13.3878 19.3026C13.8166 18.9385 13.8779 18.8248 13.6426 18.8211C13.4729 18.8174 13.2904 18.928 13.2365 19.0733C13.1826 19.2185 13.0699 19.2976 12.9915 19.2482C12.913 19.1987 12.8022 19.2377 12.7415 19.3359C12.6809 19.4342 12.4236 19.5164 12.1718 19.5164C11.7344 19.5164 11.7295 19.5022 12.0524 19.2642C12.3752 19.0263 12.3715 19.0084 11.9011 18.826C11.6321 18.7228 11.3197 18.6369 11.207 18.635C11.0943 18.6332 11.1966 18.5163 11.4343 18.3828C11.8582 18.1467 11.8527 18.1412 11.1966 18.203C10.7678 18.2413 10.4315 18.1745 10.2734 18.0175C9.89119 17.6343 10.1619 17.4174 11.0232 17.4174C11.5023 17.4174 11.7583 17.3438 11.6971 17.2369C11.4784 16.8796 12.1191 16.8722 12.8414 17.2245C13.7266 17.6572 13.8913 17.6782 13.7602 17.3296C13.699 17.1633 13.7602 17.0669 13.9342 17.0669C14.1082 17.0669 14.1701 16.9686 14.1076 16.8042C13.9893 16.4952 14.0506 16.4853 14.6215 16.7041C14.9946 16.8481 15.0344 16.8277 14.9584 16.5292C14.8678 16.1768 15.1575 16.0545 15.3487 16.3666C15.4099 16.4624 15.7775 16.7115 16.1677 16.913C16.798 17.2369 16.9591 17.2523 17.5766 17.0669C18.1531 16.892 18.2259 16.8252 17.9828 16.6886C17.8198 16.5978 17.6844 16.4031 17.6844 16.256C17.6844 16.0495 17.8615 16.0001 18.4704 16.0372C19.0621 16.0736 19.3347 16.0001 19.5883 15.7411C19.9687 15.3523 20.3381 13.9647 20.0986 13.8151C19.9491 13.723 19.8677 14.0963 19.9301 14.5766C19.9461 14.7002 19.7929 15.0352 19.5883 15.3257C19.29 15.7479 19.165 15.8109 18.9702 15.6484C18.8349 15.5359 18.7203 15.2404 18.7099 14.9864C18.6927 14.6217 18.6682 14.5995 18.6008 14.8776C18.4685 15.4203 18.0195 15.8406 17.5644 15.8406C17.2103 15.8406 17.1772 15.7918 17.3322 15.5013C17.5595 15.0735 17.5595 14.9128 17.3371 15.0525C17.2415 15.1143 17.1637 15.0773 17.1637 14.9759C17.1647 14.9281 17.147 14.8819 17.1145 14.8471C17.0819 14.8124 17.0371 14.7921 16.9898 14.7905C16.8948 14.7905 16.8164 14.9011 16.8164 15.0377C16.8164 15.3529 15.8026 16.2269 15.5912 16.094C15.5024 16.0396 15.4277 15.8431 15.4277 15.6558C15.4277 15.4685 15.3499 15.3177 15.2488 15.3177C15.1477 15.3177 15.1122 15.2182 15.1729 15.0989C15.2335 14.9796 15.1398 15.0587 14.9609 15.2794C14.782 15.5 14.5756 15.6243 14.5064 15.5526C14.4371 15.4809 14.2074 15.3968 13.9961 15.3671C13.5256 15.3004 12.8242 14.9518 12.8242 14.7806C12.8242 14.712 13.057 14.5599 13.34 14.4425C13.623 14.325 13.838 14.1334 13.8172 14.0259C13.7964 13.9183 14.0169 13.8163 14.3073 13.8064C14.9143 13.7867 15.7977 13.3707 15.4712 13.2594C15.408 13.2326 15.3539 13.1878 15.3154 13.1305C15.2769 13.0732 15.2557 13.006 15.2543 12.9368C15.2543 12.6586 16.1223 12.5882 16.3931 12.8434C16.6639 13.0987 17.3371 13.2526 17.3371 13.0678C17.3371 12.9757 17.1392 12.8515 16.893 12.7891C16.5254 12.6951 16.4813 12.6271 16.6535 12.4182C16.8256 12.2093 16.7992 12.1654 16.5352 12.1605C16.1481 12.1543 15.4938 11.6882 15.6501 11.5312C15.7113 11.4694 16.1168 11.3835 16.5512 11.3341C17.4186 11.2352 17.4155 11.2382 17.1582 10.7543C16.9916 10.4403 16.9499 10.4353 16.5665 10.6881C16.183 10.9409 16.1481 10.9354 16.0403 10.5954C15.979 10.3958 15.8528 10.2771 15.7646 10.3327C15.6764 10.3884 15.6017 10.3525 15.6017 10.2505C15.6017 10.1485 15.4454 10.0651 15.2543 10.0651C15.0632 10.0651 14.907 9.95322 14.907 9.81786C14.907 9.54961 15.2745 9.36356 15.7903 9.36356C16.1848 9.36356 16.2387 9.04215 15.8669 8.89813C15.7248 8.84312 15.6445 8.7399 15.688 8.6682C15.7315 8.5965 15.5735 8.43518 15.3358 8.30723C14.7508 7.99138 14.8947 7.69964 15.6421 7.69964H16.2547L15.8154 7.11925C15.4736 6.6668 15.4271 6.49682 15.5937 6.33117C15.7603 6.16552 15.9269 6.25638 16.3747 6.74715C16.9058 7.3294 16.9597 7.35165 17.1454 7.0562C17.2544 6.87943 17.421 6.7385 17.5129 6.7385C17.72 6.7385 18.2682 7.7188 18.3864 8.30414C18.4747 8.73681 20.0717 10.1176 20.313 9.96806C20.3804 9.92541 20.4135 9.45751 20.3926 8.9278C20.3718 8.39809 20.4239 7.9648 20.5072 7.9648C20.5905 7.9648 20.634 7.67368 20.6046 7.31889C20.5593 6.78053 20.4723 6.65011 20.068 6.54194C19.6484 6.42945 19.5945 6.45479 19.6827 6.73355C19.8407 7.23669 19.4174 7.36463 19.0805 6.91404C18.9016 6.67545 18.735 6.58583 18.6688 6.69523C18.5494 6.88808 17.8602 6.78609 17.8602 6.5747C17.8602 6.41153 18.7246 5.59625 18.8741 5.61665C19.0158 5.61342 19.1564 5.59139 19.2924 5.55113C19.7825 5.42195 19.464 5.17595 18.9451 5.28288C18.0753 5.46275 17.2912 5.42937 17.2146 5.20623C17.1748 5.08571 17.2544 4.98743 17.3935 4.98743C17.5325 4.98743 17.742 4.86814 17.8602 4.72474C17.9785 4.58134 18.1451 4.50779 18.2278 4.56032C18.3105 4.61286 18.3785 4.59494 18.3785 4.51706C18.3785 4.43918 18.1445 4.21666 17.8578 4.02258C17.3322 3.66841 17.1876 3.40943 17.516 3.40943C17.8321 3.40943 18.969 3.93975 19.1215 4.15918C19.2116 4.28898 19.2294 4.22099 19.165 3.98982C19.1075 3.7809 19.1356 3.56395 19.2263 3.5077C19.4137 3.39026 20.1151 4.51644 20.1151 4.93613C20.1151 5.09127 20.1672 5.16853 20.2297 5.1061C20.2922 5.04368 20.4515 5.12465 20.5819 5.29153C20.7884 5.55608 20.8055 5.48438 20.7277 4.73895C20.6567 4.04545 20.4931 3.70735 19.8597 2.96007C19.4309 2.45199 19.0738 1.9229 19.0738 1.78568C19.0738 1.36476 19.9449 1.64167 20.1256 2.11946C20.4116 2.88033 20.7277 2.61393 20.6634 1.67072C20.615 0.980921 20.6775 0.720084 20.9697 0.406708L21.333 0ZM22.5097 6.14636C22.4301 6.15069 22.2426 6.30274 22.027 6.54565C21.6699 6.94927 21.5063 7.31271 21.5063 7.71138C21.5063 8.03156 21.5394 8.29672 21.578 8.29672C21.6699 8.29672 21.8935 7.75465 21.9737 7.33929C22.0297 7.10925 22.1384 6.89565 22.291 6.71563C22.4313 6.55801 22.5459 6.32005 22.5459 6.19025C22.5477 6.15749 22.5361 6.14451 22.5097 6.14636ZM22.9336 8.71827C22.6034 8.74299 21.8016 9.30051 21.6748 9.63799C21.4493 10.2382 21.578 10.35 21.9682 9.88956C22.1385 9.68806 22.3743 9.52303 22.4944 9.52303C22.6953 9.52303 23.1682 8.84312 23.0408 8.74052C23.0092 8.71963 22.9709 8.71168 22.9336 8.71827ZM18.1929 10.1467C18.1432 10.1483 18.0938 10.1557 18.0459 10.1689C17.7592 10.2443 17.8265 10.3482 18.4967 10.8637C18.931 11.1981 19.4376 11.4849 19.6196 11.4991C19.8015 11.5133 19.9442 11.5819 19.9442 11.6573C19.9442 11.7327 20.0331 11.7995 20.1335 11.7995C20.234 11.7995 20.2952 11.6227 20.264 11.4058C20.2168 11.0646 20.1182 11.017 19.554 11.0664C19.0523 11.1103 18.9029 11.0602 18.9029 10.8476C18.9037 10.8124 18.8976 10.7773 18.8849 10.7444C18.8722 10.7116 18.8533 10.6815 18.8291 10.6561C18.8049 10.6307 18.776 10.6103 18.7439 10.5962C18.7119 10.582 18.6774 10.5744 18.6425 10.5738C18.5755 10.5756 18.5106 10.5507 18.4618 10.5043C18.413 10.458 18.3844 10.3941 18.3822 10.3266C18.3822 10.2079 18.3178 10.1448 18.1929 10.1455V10.1467ZM20.2046 12.6537L19.7984 12.8564C19.5389 12.9697 19.2518 13.002 18.9739 12.9491C18.7362 12.8873 18.5561 12.9195 18.5561 13.0202C18.5546 13.0658 18.5708 13.1102 18.6012 13.1439C18.6317 13.1776 18.674 13.198 18.7191 13.2007C18.8582 13.2117 18.9951 13.2432 19.1252 13.294C19.2606 13.3466 19.554 13.2223 19.7862 13.0202L20.2046 12.6537ZM18.3007 13.0864C18.2335 13.111 18.1724 13.1503 18.1218 13.2013C17.9276 13.3639 17.8615 13.3664 17.8615 13.2125C17.8615 13.0987 17.7763 13.0616 17.6673 13.1302C17.5282 13.2168 17.565 13.328 17.7849 13.4918C18.2333 13.8213 18.3822 13.7854 18.3822 13.3546C18.3822 13.1599 18.3668 13.0759 18.3007 13.0857V13.0864ZM15.6868 13.7267C15.5373 13.7267 15.4595 13.8058 15.5183 13.9023C15.6574 14.1285 15.9521 14.1285 15.9521 13.9023C15.9521 13.8052 15.8363 13.7261 15.6868 13.7261V13.7267ZM19.7709 16.5298C19.6753 16.5298 19.5975 16.9235 19.5975 17.4056C19.5975 18.2932 19.6232 18.3686 19.8297 18.1603C20.0159 17.9724 19.9632 16.5292 19.7709 16.5292V16.5298ZM21.0953 18.8662C21.034 18.8557 20.9856 18.894 20.9856 18.9694C20.9856 19.0169 21.0036 19.0627 21.0359 19.0972C21.0683 19.1317 21.1126 19.1523 21.1596 19.1548C21.3814 19.1548 21.3814 19.0312 21.1596 18.8922C21.1401 18.8791 21.1182 18.8701 21.0953 18.8656V18.8662ZM19.6943 19.237C19.6839 19.237 19.6686 19.2513 19.6563 19.2809C19.6092 19.3984 19.6079 19.6345 19.6508 19.8063C19.6937 19.9781 19.7341 19.8817 19.7378 19.5925C19.7415 19.3767 19.7255 19.2401 19.6943 19.2383V19.237ZM21.8536 19.3298C21.7581 19.3298 21.6803 19.3631 21.6803 19.4052C21.6803 19.4472 21.7581 19.5331 21.8536 19.5906C21.9492 19.6481 22.027 19.6153 22.027 19.514C22.0275 19.4667 22.0097 19.421 21.9773 19.3868C21.9449 19.3527 21.9005 19.3326 21.8536 19.331V19.3298ZM22.7198 19.6815C22.6243 19.6815 22.5465 19.7148 22.5465 19.7569C22.5465 19.7989 22.6243 19.8848 22.7198 19.9423C22.8154 19.9998 22.8932 19.967 22.8932 19.865C22.8939 19.8176 22.8761 19.7719 22.8437 19.7375C22.8113 19.7032 22.7668 19.6831 22.7198 19.6815ZM26.3341 19.687C26.1825 19.7121 26.0468 19.7963 25.9561 19.9213C25.6032 20.37 25.0201 20.4294 24.6972 20.0449C24.4112 19.7087 24.0032 19.7037 24.2072 20.04C24.2629 20.129 24.1882 20.2044 24.0461 20.2044C23.904 20.2044 23.7355 20.1259 23.6785 20.0294C23.5382 19.8001 23.2448 19.7983 23.2448 20.0294C23.2448 20.1271 23.4598 20.294 23.722 20.3954C23.9842 20.4967 24.6452 20.6197 25.1873 20.6686C26.048 20.7471 26.1938 20.7174 26.3586 20.4059C26.4609 20.2112 26.5423 19.9683 26.5423 19.8644C26.5399 19.734 26.4535 19.6747 26.3341 19.687ZM10.407 28.9634C10.3596 28.9624 10.3138 28.9803 10.2794 29.0131C10.245 29.046 10.2248 29.0912 10.2232 29.139C10.2232 29.3627 10.3457 29.3627 10.4836 29.139C10.5436 29.0425 10.5111 28.9634 10.407 28.9634ZM24.9178 31.065C24.81 31.065 25.017 31.2226 25.3723 31.4148C26.0027 31.7548 26.3653 31.8512 26.3653 31.6775C26.3653 31.5693 25.1732 31.065 24.9178 31.065ZM9.92978 38.5439C9.7613 38.5361 9.59275 38.5581 9.43176 38.6088C9.19407 38.7034 9.30924 38.7417 9.83238 38.7504C10.2391 38.7578 10.5705 38.7331 10.5705 38.6966C10.5718 38.6064 10.2508 38.5489 9.93101 38.547L9.92978 38.5439ZM6.04725 39.4896C5.98033 39.487 5.91358 39.4983 5.85123 39.523C5.71217 39.5793 5.7575 39.6176 5.96026 39.6262C6.14404 39.6349 6.24511 39.591 6.18753 39.5335C6.14669 39.5053 6.09796 39.491 6.04847 39.4927L6.04725 39.4896ZM6.00376 43.8522C5.99279 43.8506 5.98165 43.8506 5.97068 43.8522C5.87512 43.8522 5.68093 43.9276 5.53697 44.0221C5.39302 44.1167 5.3532 44.1921 5.44999 44.1921C5.54678 44.1921 5.74157 44.1149 5.88369 44.0221C6.00988 43.943 6.05767 43.8713 6.00499 43.8553L6.00376 43.8522ZM36.2395 50.9312C36.1562 50.9195 36.1335 50.956 36.1782 51.0314C36.2067 51.0786 36.2453 51.1189 36.2912 51.1492C36.3371 51.1794 36.3891 51.1989 36.4435 51.2063C36.6934 51.2063 36.6413 51.0753 36.3412 50.959C36.3082 50.9465 36.2742 50.9372 36.2395 50.9312ZM33.4345 52.4375L33.0387 52.8646L32.6479 53.2905L32.3496 52.8319C32.0788 52.4128 32.0433 52.4042 31.8828 52.6897C31.7542 52.9227 31.6745 52.937 31.5735 52.7775C31.4724 52.618 31.4068 52.6638 31.3235 52.9295C31.2059 53.3066 30.8794 53.4568 30.8794 53.1329C30.8794 53.0365 30.6644 52.9561 30.4022 52.958H29.925L30.4457 53.2361C30.7808 53.4147 31.2298 53.4797 31.7039 53.4271C32.1082 53.3832 32.3968 53.4203 32.3447 53.5044C32.2075 53.7281 32.4672 53.6861 33.0008 53.4061C33.2727 53.2627 33.4908 53.2312 33.5215 53.3288C33.5521 53.4265 33.7193 53.4444 33.889 53.3783C34.1775 53.2676 34.1702 53.2312 33.8143 52.8473L33.4345 52.4375ZM29.397 52.6279C29.3625 52.6259 29.328 52.6295 29.2947 52.6384C29.1642 52.6823 29.2444 52.762 29.4784 52.8238C29.767 52.8993 29.8343 52.8764 29.7057 52.7466C29.6216 52.6701 29.5127 52.6272 29.3994 52.6261L29.397 52.6279ZM31.1606 59.8467C31.0993 59.8362 31.0509 59.8751 31.0509 59.9505C31.0509 59.998 31.0689 60.0438 31.1012 60.0783C31.1336 60.1128 31.1779 60.1334 31.2249 60.1359C31.4466 60.1359 31.4466 60.0123 31.2249 59.8733C31.2059 59.8606 31.1847 59.8515 31.1624 59.8467H31.1606Z" fill="white"/>
<path d="M62.6821 31.504C62.6821 29.84 63.0261 28.36 63.7141 27.064C64.4181 25.752 65.4101 24.736 66.6901 24.016C67.9701 23.28 69.4421 22.912 71.1061 22.912C73.2181 22.912 74.9941 23.48 76.4341 24.616C77.8741 25.736 78.8021 27.264 79.2181 29.2H74.1541C73.8501 28.56 73.4261 28.072 72.8821 27.736C72.3541 27.4 71.7381 27.232 71.0341 27.232C69.9461 27.232 69.0741 27.624 68.4181 28.408C67.7781 29.176 67.4581 30.208 67.4581 31.504C67.4581 32.816 67.7781 33.864 68.4181 34.648C69.0741 35.416 69.9461 35.8 71.0341 35.8C71.7381 35.8 72.3541 35.632 72.8821 35.296C73.4261 34.96 73.8501 34.472 74.1541 33.832H79.2181C78.8021 35.768 77.8741 37.304 76.4341 38.44C74.9941 39.56 73.2181 40.12 71.1061 40.12C69.4421 40.12 67.9701 39.76 66.6901 39.04C65.4101 38.304 64.4181 37.288 63.7141 35.992C63.0261 34.68 62.6821 33.184 62.6821 31.504ZM87.7096 40.168C86.3656 40.168 85.1576 39.888 84.0856 39.328C83.0296 38.768 82.1976 37.968 81.5896 36.928C80.9816 35.888 80.6776 34.664 80.6776 33.256C80.6776 31.864 80.9816 30.648 81.5896 29.608C82.2136 28.568 83.0536 27.768 84.1096 27.208C85.1816 26.648 86.3896 26.368 87.7336 26.368C89.0776 26.368 90.2776 26.648 91.3336 27.208C92.4056 27.768 93.2456 28.568 93.8536 29.608C94.4776 30.648 94.7896 31.864 94.7896 33.256C94.7896 34.648 94.4776 35.872 93.8536 36.928C93.2456 37.968 92.4056 38.768 91.3336 39.328C90.2616 39.888 89.0536 40.168 87.7096 40.168ZM87.7096 36.088C88.3656 36.088 88.9096 35.848 89.3416 35.368C89.7896 34.872 90.0136 34.168 90.0136 33.256C90.0136 32.344 89.7896 31.648 89.3416 31.168C88.9096 30.688 88.3736 30.448 87.7336 30.448C87.0936 30.448 86.5576 30.688 86.1256 31.168C85.6936 31.648 85.4776 32.344 85.4776 33.256C85.4776 34.184 85.6856 34.888 86.1016 35.368C86.5176 35.848 87.0536 36.088 87.7096 36.088ZM101.407 22.24V40H96.7034V22.24H101.407ZM103.318 33.256C103.318 31.864 103.566 30.648 104.062 29.608C104.574 28.568 105.27 27.768 106.15 27.208C107.03 26.648 108.006 26.368 109.078 26.368C109.942 26.368 110.71 26.552 111.382 26.92C112.07 27.272 112.606 27.76 112.99 28.384V22.24H117.718V40H112.99V38.128C112.622 38.752 112.102 39.248 111.43 39.616C110.758 39.984 109.966 40.168 109.054 40.168C107.982 40.168 107.006 39.888 106.126 39.328C105.262 38.768 104.574 37.968 104.062 36.928C103.566 35.872 103.318 34.648 103.318 33.256ZM113.014 33.256C113.014 32.392 112.774 31.712 112.294 31.216C111.83 30.72 111.254 30.472 110.566 30.472C109.862 30.472 109.278 30.72 108.814 31.216C108.35 31.696 108.118 32.376 108.118 33.256C108.118 34.12 108.35 34.808 108.814 35.32C109.278 35.816 109.862 36.064 110.566 36.064C111.254 36.064 111.83 35.816 112.294 35.32C112.774 34.824 113.014 34.136 113.014 33.256ZM126.135 40.168C124.919 40.168 123.831 39.968 122.871 39.568C121.927 39.152 121.175 38.592 120.615 37.888C120.071 37.168 119.767 36.36 119.703 35.464H124.263C124.327 35.896 124.527 36.232 124.863 36.472C125.199 36.712 125.615 36.832 126.111 36.832C126.495 36.832 126.799 36.752 127.023 36.592C127.247 36.432 127.359 36.224 127.359 35.968C127.359 35.632 127.175 35.384 126.807 35.224C126.439 35.064 125.831 34.888 124.983 34.696C124.023 34.504 123.223 34.288 122.583 34.048C121.943 33.808 121.383 33.416 120.903 32.872C120.439 32.328 120.207 31.592 120.207 30.664C120.207 29.864 120.423 29.144 120.855 28.504C121.287 27.848 121.919 27.328 122.751 26.944C123.599 26.56 124.615 26.368 125.799 26.368C127.559 26.368 128.943 26.8 129.951 27.664C130.959 28.528 131.543 29.664 131.703 31.072H127.455C127.375 30.64 127.183 30.312 126.879 30.088C126.591 29.848 126.199 29.728 125.703 29.728C125.319 29.728 125.023 29.8 124.815 29.944C124.623 30.088 124.527 30.288 124.527 30.544C124.527 30.864 124.711 31.112 125.079 31.288C125.447 31.448 126.039 31.616 126.855 31.792C127.831 32 128.639 32.232 129.279 32.488C129.935 32.744 130.503 33.16 130.983 33.736C131.479 34.296 131.727 35.064 131.727 36.04C131.727 36.824 131.495 37.528 131.031 38.152C130.583 38.776 129.935 39.272 129.087 39.64C128.255 39.992 127.271 40.168 126.135 40.168ZM138.743 28.408C139.111 27.784 139.631 27.288 140.303 26.92C140.975 26.552 141.767 26.368 142.679 26.368C143.751 26.368 144.719 26.648 145.583 27.208C146.463 27.768 147.151 28.568 147.647 29.608C148.159 30.648 148.415 31.864 148.415 33.256C148.415 34.648 148.159 35.872 147.647 36.928C147.151 37.968 146.463 38.768 145.583 39.328C144.719 39.888 143.751 40.168 142.679 40.168C141.767 40.168 140.975 39.984 140.303 39.616C139.647 39.248 139.127 38.752 138.743 38.128V46.432H134.039V26.536H138.743V28.408ZM143.639 33.256C143.639 32.376 143.399 31.696 142.919 31.216C142.455 30.72 141.879 30.472 141.191 30.472C140.503 30.472 139.919 30.72 139.439 31.216C138.975 31.712 138.743 32.392 138.743 33.256C138.743 34.136 138.975 34.824 139.439 35.32C139.919 35.816 140.503 36.064 141.191 36.064C141.879 36.064 142.455 35.816 142.919 35.32C143.399 34.808 143.639 34.12 143.639 33.256ZM155.056 28.912C155.584 28.144 156.224 27.536 156.976 27.088C157.728 26.64 158.536 26.416 159.4 26.416V31.432H158.08C157.056 31.432 156.296 31.632 155.8 32.032C155.304 32.432 155.056 33.128 155.056 34.12V40H150.352V26.536H155.056V28.912ZM163.462 25.288C162.63 25.288 161.958 25.064 161.446 24.616C160.95 24.152 160.702 23.576 160.702 22.888C160.702 22.184 160.95 21.6 161.446 21.136C161.958 20.672 162.63 20.44 163.462 20.44C164.278 20.44 164.934 20.672 165.43 21.136C165.942 21.6 166.198 22.184 166.198 22.888C166.198 23.576 165.942 24.152 165.43 24.616C164.934 25.064 164.278 25.288 163.462 25.288ZM165.79 26.536V40H161.086V26.536H165.79ZM177.277 26.416C178.829 26.416 180.061 26.936 180.973 27.976C181.885 29 182.341 30.392 182.341 32.152V40H177.637V32.776C177.637 32.008 177.437 31.408 177.037 30.976C176.637 30.528 176.101 30.304 175.429 30.304C174.725 30.304 174.173 30.528 173.773 30.976C173.373 31.408 173.173 32.008 173.173 32.776V40H168.469V26.536H173.173V28.456C173.589 27.848 174.149 27.36 174.853 26.992C175.557 26.608 176.365 26.416 177.277 26.416ZM189.89 26.368C190.802 26.368 191.594 26.552 192.266 26.92C192.954 27.288 193.482 27.784 193.85 28.408V26.536H198.554V39.856C198.554 41.12 198.314 42.256 197.834 43.264C197.354 44.288 196.602 45.104 195.578 45.712C194.57 46.32 193.29 46.624 191.738 46.624C189.658 46.624 187.994 46.136 186.746 45.16C185.498 44.184 184.786 42.856 184.61 41.176H189.242C189.338 41.608 189.578 41.944 189.962 42.184C190.346 42.424 190.842 42.544 191.45 42.544C193.05 42.544 193.85 41.648 193.85 39.856V38.128C193.482 38.752 192.954 39.248 192.266 39.616C191.594 39.984 190.802 40.168 189.89 40.168C188.818 40.168 187.842 39.888 186.962 39.328C186.098 38.768 185.41 37.968 184.898 36.928C184.402 35.872 184.154 34.648 184.154 33.256C184.154 31.864 184.402 30.648 184.898 29.608C185.41 28.568 186.098 27.768 186.962 27.208C187.842 26.648 188.818 26.368 189.89 26.368ZM193.85 33.256C193.85 32.392 193.61 31.712 193.13 31.216C192.666 30.72 192.09 30.472 191.402 30.472C190.698 30.472 190.114 30.72 189.65 31.216C189.186 31.696 188.954 32.376 188.954 33.256C188.954 34.12 189.186 34.808 189.65 35.32C190.114 35.816 190.698 36.064 191.402 36.064C192.09 36.064 192.666 35.816 193.13 35.32C193.61 34.824 193.85 34.136 193.85 33.256ZM78.6984 61L74.5784 47.76H76.1584L79.5584 58.88L83.1184 47.76H84.8384L88.3984 58.88L91.7984 47.76H93.3784L89.2584 61H87.5584L83.9784 49.88L80.3984 61H78.6984ZM98.6345 61.16C97.6212 61.16 96.7345 60.9333 95.9745 60.48C95.2145 60.0133 94.6212 59.3867 94.1945 58.6C93.7812 57.8133 93.5745 56.9467 93.5745 56C93.5745 55.04 93.7745 54.1733 94.1745 53.4C94.5745 52.6133 95.1479 51.9933 95.8945 51.54C96.6412 51.0733 97.5212 50.84 98.5345 50.84C99.5612 50.84 100.441 51.0733 101.175 51.54C101.921 51.9933 102.495 52.6133 102.895 53.4C103.295 54.1733 103.495 55.04 103.495 56V56.6H95.1145C95.1945 57.1867 95.3812 57.7267 95.6745 58.22C95.9812 58.7 96.3879 59.0867 96.8945 59.38C97.4012 59.66 97.9879 59.8 98.6545 59.8C99.3612 59.8 99.9545 59.6467 100.435 59.34C100.915 59.02 101.288 58.6133 101.555 58.12H103.195C102.848 59.0133 102.295 59.7467 101.535 60.32C100.788 60.88 99.8212 61.16 98.6345 61.16ZM95.1345 55.2H101.935C101.801 54.3467 101.441 53.6333 100.855 53.06C100.268 52.4867 99.4945 52.2 98.5345 52.2C97.5745 52.2 96.8012 52.4867 96.2145 53.06C95.6412 53.6333 95.2812 54.3467 95.1345 55.2ZM110.407 61.16C109.581 61.16 108.867 61 108.267 60.68C107.681 60.36 107.201 59.9333 106.827 59.4V61H105.327V47H106.827V52.62C107.201 52.0733 107.681 51.64 108.267 51.32C108.867 51 109.581 50.84 110.407 50.84C111.381 50.84 112.227 51.0733 112.947 51.54C113.681 51.9933 114.247 52.6133 114.647 53.4C115.047 54.1733 115.247 55.04 115.247 56C115.247 56.9467 115.047 57.8133 114.647 58.6C114.247 59.3867 113.681 60.0133 112.947 60.48C112.227 60.9333 111.381 61.16 110.407 61.16ZM110.207 59.8C110.954 59.8 111.587 59.6267 112.107 59.28C112.641 58.9333 113.047 58.4733 113.327 57.9C113.607 57.3133 113.747 56.68 113.747 56C113.747 55.3067 113.607 54.6733 113.327 54.1C113.047 53.5267 112.641 53.0667 112.107 52.72C111.587 52.3733 110.954 52.2 110.207 52.2C109.474 52.2 108.847 52.3733 108.327 52.72C107.807 53.0667 107.414 53.5267 107.147 54.1C106.881 54.6733 106.747 55.3067 106.747 56C106.747 56.68 106.881 57.3133 107.147 57.9C107.414 58.4733 107.807 58.9333 108.327 59.28C108.847 59.6267 109.474 59.8 110.207 59.8ZM122.405 61V47.76H127.985C128.772 47.76 129.525 47.9133 130.245 48.22C130.978 48.5133 131.632 48.9467 132.205 49.52C132.778 50.0933 133.232 50.7867 133.565 51.6C133.898 52.4133 134.065 53.34 134.065 54.38C134.065 55.42 133.898 56.3467 133.565 57.16C133.232 57.9733 132.778 58.6667 132.205 59.24C131.632 59.8133 130.978 60.2533 130.245 60.56C129.525 60.8533 128.772 61 127.985 61H122.405ZM123.905 59.58H127.925C128.872 59.58 129.692 59.34 130.385 58.86C131.078 58.38 131.612 57.7467 131.985 56.96C132.372 56.1733 132.565 55.3133 132.565 54.38C132.565 53.4333 132.372 52.5667 131.985 51.78C131.612 50.9933 131.078 50.3667 130.385 49.9C129.692 49.42 128.872 49.18 127.925 49.18H123.905V59.58ZM140.588 61.16C139.574 61.16 138.688 60.9333 137.928 60.48C137.168 60.0133 136.574 59.3867 136.148 58.6C135.734 57.8133 135.528 56.9467 135.528 56C135.528 55.04 135.728 54.1733 136.128 53.4C136.528 52.6133 137.101 51.9933 137.848 51.54C138.594 51.0733 139.474 50.84 140.488 50.84C141.514 50.84 142.394 51.0733 143.128 51.54C143.874 51.9933 144.448 52.6133 144.848 53.4C145.248 54.1733 145.448 55.04 145.448 56V56.6H137.068C137.148 57.1867 137.334 57.7267 137.628 58.22C137.934 58.7 138.341 59.0867 138.848 59.38C139.354 59.66 139.941 59.8 140.608 59.8C141.314 59.8 141.908 59.6467 142.388 59.34C142.868 59.02 143.241 58.6133 143.508 58.12H145.148C144.801 59.0133 144.248 59.7467 143.488 60.32C142.741 60.88 141.774 61.16 140.588 61.16ZM137.088 55.2H143.888C143.754 54.3467 143.394 53.6333 142.808 53.06C142.221 52.4867 141.448 52.2 140.488 52.2C139.528 52.2 138.754 52.4867 138.168 53.06C137.594 53.6333 137.234 54.3467 137.088 55.2ZM150.92 61.16C150 61.16 149.22 61.0067 148.58 60.7C147.954 60.3933 147.474 59.9933 147.14 59.5C146.807 58.9933 146.62 58.4467 146.58 57.86H148.14C148.18 58.1933 148.294 58.52 148.48 58.84C148.68 59.1467 148.98 59.4 149.38 59.6C149.78 59.7867 150.3 59.88 150.94 59.88C151.14 59.88 151.387 59.86 151.68 59.82C151.974 59.78 152.254 59.7067 152.52 59.6C152.8 59.4933 153.034 59.3333 153.22 59.12C153.407 58.9067 153.5 58.6333 153.5 58.3C153.5 57.8867 153.34 57.5667 153.02 57.34C152.7 57.1133 152.287 56.94 151.78 56.82C151.274 56.6867 150.734 56.56 150.16 56.44C149.6 56.32 149.067 56.1667 148.56 55.98C148.054 55.78 147.64 55.5067 147.32 55.16C147 54.8 146.84 54.3133 146.84 53.7C146.84 52.7933 147.167 52.0933 147.82 51.6C148.487 51.0933 149.467 50.84 150.76 50.84C151.64 50.84 152.354 50.98 152.9 51.26C153.46 51.5267 153.88 51.8733 154.16 52.3C154.454 52.7267 154.627 53.1867 154.68 53.68H153.16C153.107 53.2533 152.894 52.8867 152.52 52.58C152.16 52.2733 151.56 52.12 150.72 52.12C149.134 52.12 148.34 52.6 148.34 53.56C148.34 53.96 148.5 54.2667 148.82 54.48C149.14 54.6933 149.554 54.8667 150.06 55C150.567 55.12 151.1 55.24 151.66 55.36C152.234 55.4667 152.774 55.62 153.28 55.82C153.787 56.02 154.2 56.3067 154.52 56.68C154.84 57.04 155 57.5333 155 58.16C155 59.1333 154.627 59.88 153.88 60.4C153.147 60.9067 152.16 61.16 150.92 61.16ZM156.869 49.32V47.36H158.489V49.32H156.869ZM156.929 61V51H158.429V61H156.929ZM165.61 65.12C164.357 65.12 163.337 64.8467 162.55 64.3C161.764 63.7667 161.23 63.0667 160.95 62.2H162.61C162.81 62.6933 163.157 63.0733 163.65 63.34C164.144 63.62 164.77 63.76 165.53 63.76C166.677 63.76 167.51 63.4867 168.03 62.94C168.564 62.4067 168.83 61.6267 168.83 60.6V59.22C168.457 59.7533 167.97 60.1867 167.37 60.52C166.784 60.84 166.077 61 165.25 61C164.277 61 163.424 60.78 162.69 60.34C161.97 59.8867 161.41 59.2733 161.01 58.5C160.61 57.7267 160.41 56.8667 160.41 55.92C160.41 54.96 160.61 54.1 161.01 53.34C161.41 52.5667 161.97 51.96 162.69 51.52C163.424 51.0667 164.277 50.84 165.25 50.84C166.077 50.84 166.784 51 167.37 51.32C167.97 51.6267 168.457 52.0533 168.83 52.6V51H170.33V60.7C170.33 62.1267 169.917 63.22 169.09 63.98C168.277 64.74 167.117 65.12 165.61 65.12ZM165.45 59.64C166.184 59.64 166.804 59.4733 167.31 59.14C167.83 58.8067 168.224 58.36 168.49 57.8C168.77 57.2267 168.91 56.6 168.91 55.92C168.91 55.2267 168.77 54.6 168.49 54.04C168.224 53.48 167.83 53.0333 167.31 52.7C166.804 52.3667 166.184 52.2 165.45 52.2C164.717 52.2 164.084 52.3667 163.55 52.7C163.017 53.0333 162.61 53.48 162.33 54.04C162.05 54.6 161.91 55.2267 161.91 55.92C161.91 56.6 162.05 57.2267 162.33 57.8C162.61 58.36 163.017 58.8067 163.55 59.14C164.084 59.4733 164.717 59.64 165.45 59.64ZM172.925 61V51H174.425V52.56C174.785 52.08 175.225 51.6733 175.745 51.34C176.265 51.0067 176.932 50.84 177.745 50.84C178.438 50.84 179.085 51.0067 179.685 51.34C180.298 51.66 180.792 52.1467 181.165 52.8C181.552 53.44 181.745 54.2333 181.745 55.18V61H180.245V55.22C180.245 54.3133 179.985 53.5867 179.465 53.04C178.945 52.48 178.272 52.2 177.445 52.2C176.885 52.2 176.378 52.3267 175.925 52.58C175.472 52.8333 175.105 53.1933 174.825 53.66C174.558 54.1133 174.425 54.64 174.425 55.24V61H172.925ZM187.893 61.16C186.973 61.16 186.193 61.0067 185.553 60.7C184.926 60.3933 184.446 59.9933 184.113 59.5C183.78 58.9933 183.593 58.4467 183.553 57.86H185.113C185.153 58.1933 185.266 58.52 185.453 58.84C185.653 59.1467 185.953 59.4 186.353 59.6C186.753 59.7867 187.273 59.88 187.913 59.88C188.113 59.88 188.36 59.86 188.653 59.82C188.946 59.78 189.226 59.7067 189.493 59.6C189.773 59.4933 190.006 59.3333 190.193 59.12C190.38 58.9067 190.473 58.6333 190.473 58.3C190.473 57.8867 190.313 57.5667 189.993 57.34C189.673 57.1133 189.26 56.94 188.753 56.82C188.246 56.6867 187.706 56.56 187.133 56.44C186.573 56.32 186.04 56.1667 185.533 55.98C185.026 55.78 184.613 55.5067 184.293 55.16C183.973 54.8 183.813 54.3133 183.813 53.7C183.813 52.7933 184.14 52.0933 184.793 51.6C185.46 51.0933 186.44 50.84 187.733 50.84C188.613 50.84 189.326 50.98 189.873 51.26C190.433 51.5267 190.853 51.8733 191.133 52.3C191.426 52.7267 191.6 53.1867 191.653 53.68H190.133C190.08 53.2533 189.866 52.8867 189.493 52.58C189.133 52.2733 188.533 52.12 187.693 52.12C186.106 52.12 185.313 52.6 185.313 53.56C185.313 53.96 185.473 54.2667 185.793 54.48C186.113 54.6933 186.526 54.8667 187.033 55C187.54 55.12 188.073 55.24 188.633 55.36C189.206 55.4667 189.746 55.62 190.253 55.82C190.76 56.02 191.173 56.3067 191.493 56.68C191.813 57.04 191.973 57.5333 191.973 58.16C191.973 59.1333 191.6 59.88 190.853 60.4C190.12 60.9067 189.133 61.16 187.893 61.16Z" fill="white"/>
</svg>
