<svg id="SvgjsSvg1001" width="288" height="288" xmlns="http://www.w3.org/2000/svg" version="1.1" xmlns:xlink="http://www.w3.org/1999/xlink" xmlns:svgjs="http://svgjs.com/svgjs"><defs id="SvgjsDefs1002"></defs><g id="SvgjsG1008"><svg xmlns="http://www.w3.org/2000/svg" data-name="Layer 1" viewBox="0 0 845.724 704.031" width="288" height="288"><g data-name="Group 2"><path fill="#feb8b8" d="M880.72383,762.75434l-1.464,19.525-29.773-9.762,12.2-14.643Z" data-name="Path 4" transform="translate(-177.138 -97.984)" class="colorfeb8b8 svgShape"></path><path fill="#feb8b8" d="M989.08286,756.40934l-1.467,19.035-16.595,2.441-9.762-9.274,11.226-18.06Z" data-name="Path 5" transform="translate(-177.138 -97.984)" class="colorfeb8b8 svgShape"></path><path fill="#2f2e41" d="M1001.28487,513.33633s13.179,15.619-3.417,39.536-36.607,47.346-36.607,47.346l-37.1,70.286s-19.036,68.822-23.429,70.774-6.833-5.857-4.393,2.44.976,7.81-.976,8.3-7.321-.488-5.369,2.929,3.417,3.417-.488,3.417-5.369-2.44-5.369.976-3.417,11.226-3.417,11.226-23.917-6.833-24.893-9.762,6.345-4.393,4.881-7.321-1.952-2.929-1.952-7.321,2.929-5.369,2.929-5.369,2.44-.976,1.464-2.929-4.881-.976,0-3.417,24.895-77.121,24.895-77.121,0-37.1,6.345-49.3,1.464-99.084,16.6-100.06S1001.28487,513.33633,1001.28487,513.33633Z" data-name="Path 6" transform="translate(-177.138 -97.984)" class="color2f2e41 svgShape"></path><path fill="#2f2e41" d="M996.40382,541.15733l-2.929,75.655s14.643,73.215,9.762,95.667-1.464,19.524-4.393,23.429-5.369,1.952-2.929,5.369,3.9,4.393,0,8.3-5.857,13.179-5.857,13.179l-24.893-2.44s6.345-11.226,3.9-13.667-8.786,1.464-3.9-3.9,7.81-2.929,4.881-5.369-7.321-1.464-3.417-5.369,8.3-3.9,4.393-5.369-8.3,0-6.345-2.929,4.393-6.345,4.393-6.345l-5.857-44.417s-6.833-14.643-4.881-20.988-8.3-58.572-8.3-58.572Z" data-name="Path 7" transform="translate(-177.138 -97.984)" class="color2f2e41 svgShape"></path><path fill="#2f2e41" d="M985.66786,766.17034s4.881-4.881,6.345-1.952,12.2,29.286,5.857,31.238-15.619,3.9-20.5,2.44-15.131-8.3-27.333-8.3-22.452-5.369-22.452-7.321-1.952-13.667,7.321-13.667,26.357-10.738,26.357-10.738,3.9-7.81,5.857-7.321.488,16.107.488,16.107S978.83186,777.39635,985.66786,766.17034Z" data-name="Path 8" transform="translate(-177.138 -97.984)" class="color2f2e41 svgShape"></path><path fill="#2f2e41" d="M877.30785,772.51535s4.393-10.738,8.786-8.3,1.464,32.7,1.464,32.7-3.9,6.345-15.131,4.881-41-4.881-47.834-3.417-25.381-6.833-20.5-18.06c0,0,2.44-6.345,14.155-5.857s33.191-13.667,33.191-13.667,3.417-9.762,4.393-8.786,1.952,18.06,1.952,18.06S870.47484,778.37235,877.30785,772.51535Z" data-name="Path 9" transform="translate(-177.138 -97.984)" class="color2f2e41 svgShape"></path><circle cx="764.111" cy="196.196" r="28.31" fill="#feb8b8" data-name="Ellipse 2" class="colorfeb8b8 svgShape"></circle><path fill="#feb8b8" d="M963.21288,296.13233s15.131,30.262,20.5,33.191-36.607,20.989-36.607,20.989-6.833-29.774-15.131-36.119S963.21288,296.13233,963.21288,296.13233Z" data-name="Path 10" transform="translate(-177.138 -97.984)" class="colorfeb8b8 svgShape"></path><path fill="#feb8b8" d="M919.77283,543.59733l-1.952,18.548s-20.988-7.321-14.155-20.988Z" data-name="Path 11" transform="translate(-177.138 -97.984)" class="colorfeb8b8 svgShape"></path><path fill="#f0f0f0" d="M911.47784,515.77634c14.643,15.615,92.247,2.436,92.247,2.436l-.972-11.225,9.762-10.243-2.927-47.837s8.78-22.45,10.243-56.617a30.78024,30.78024,0,0,0-.378-6.278c-5.032-30.607-54.87-50.32-56.239-49.857-.689.227-8.025,4.05-15.681,8.072-8.789,4.617-17.994,9.5-17.994,9.5-11.716,4.4-9.762,74.687-13.67,81.031s0,28.3,0,28.3l-4.39,20.987S896.83087,500.16132,911.47784,515.77634Z" data-name="Path 12" transform="translate(-177.138 -97.984)" class="colorf0f0f0 svgShape"></path><path d="M958.78288,360.82433s13.667,41,10.738,68.822-34.655,107.382-34.655,107.382l-10.733,5.857v13.666l-7.553-20.458,20.77-43.428S911.43285,342.76534,958.78288,360.82433Z" data-name="Path 13" opacity=".1" transform="translate(-177.138 -97.984)" style="isolation:isolate" fill="#000000" class="color000 svgShape"></path><path d="M945.96487,348.52235c14.161-7.808,35.639,12.7,58.09,34.657,8.063,7.883,12.726,7.09,15.4,2.832-5.032-30.607-54.87-50.32-56.239-49.857-.689.227-8.025,4.05-15.681,8.072Z" data-name="Path 14" opacity=".1" transform="translate(-177.138 -97.984)" style="isolation:isolate" fill="#000000" class="color000 svgShape"></path><path fill="#f0f0f0" d="M945.97183,344.74934l5.857-16.107s40.024-19.036,66.381,0l4.393,27.333s3.9,45.393-18.548,23.429S960.12485,336.93934,945.97183,344.74934Z" data-name="Path 15" transform="translate(-177.138 -97.984)" class="colorf0f0f0 svgShape"></path><path fill="#f0f0f0" d="M957.35687,354.21633s13.667,41,10.738,68.822-34.655,107.382-34.655,107.382l-10.738,5.861v13.667l-22.452-6.345,4.881-16.107s-7.81-9.762-2.44-12.691,4.393-19.036,4.393-19.036S910.01086,336.15633,957.35687,354.21633Z" data-name="Path 16" transform="translate(-177.138 -97.984)" class="colorf0f0f0 svgShape"></path><path fill="#2f2e41" d="M966.48688,306.03134c-.462-2.188-.4-4.542-1.448-6.517-1.573-2.961-5.188-4.2-8.529-4.492-4.265-.371-8.562.367-12.833.075s-8.833-1.92-10.959-5.635c-.848-1.482-1.266-3.227-2.391-4.512-2.341-2.674-6.608-2.26-9.972-1.114s-6.873,2.82-10.312,1.924c-2.892-8.091.669-17.424,6.828-23.415s14.465-9.215,22.715-11.618c10.881-3.17,23.126-5.043,33.13.282,14.507,7.721,19.626,28.158,18.288,43.39-.506,5.758-1.333,12.278-5.988,16.165C978.19385,316.26233,968.54687,315.77333,966.48688,306.03134Z" data-name="Path 17" transform="translate(-177.138 -97.984)" class="color2f2e41 svgShape"></path><rect width="611.461" height="391.607" x=".262" y=".347" fill="#e6e6e6" data-name="Rectangle 1" class="colore6e6e6 svgShape"></rect><rect width="576.492" height="319.322" x="19.746" y="49.464" fill="#ffffff" data-name="Rectangle 2" class="colorfff svgShape"></rect><rect width="611.461" height="25.977" fill="#2e8b57" data-name="Rectangle 3" class="color43b7ff svgShape"></rect><circle cx="19.305" cy="13.281" r="4.815" fill="#ffffff" data-name="Ellipse 3" class="colorfff svgShape"></circle><circle cx="37.58" cy="13.281" r="4.815" fill="#ffffff" data-name="Ellipse 4" class="colorfff svgShape"></circle><circle cx="55.855" cy="13.281" r="4.815" fill="#ffffff" data-name="Ellipse 5" class="colorfff svgShape"></circle><path fill="#2e8b57" d="M297.74287,192.20533l-38.133,37.657,38.133,37.656,8.58-8.58-28.835-28.839,29.076-29.076Z" data-name="Path 37" transform="translate(-177.138 -97.984)" class="color43b7ff svgShape"></path><path fill="#2e8b57" d="M328.98787,192.20533l38.132,37.657-38.132,37.656-8.58-8.58,28.837-28.838-29.078-29.077Z" data-name="Path 38" transform="translate(-177.138 -97.984)" class="color43b7ff svgShape"></path><path fill="#e6e6e6" d="M452.33185,201.65533c-3.119,0-5.647,1.794-5.647,4.006s2.528,4.006,5.647,4.006h266.214c3.119,0,5.647-1.794,5.647-4.006s-2.528-4.006-5.647-4.006Z" data-name="Path 65" transform="translate(-177.138 -97.984)" class="colore6e6e6 svgShape"></path><path fill="#e6e6e6" d="M715.89888,421.13433h-447.838c-4.578,0-8.288-2.643-8.293-5.9v-79.042c.005-3.257,3.715-5.9,8.293-5.9h447.838c4.578,0,8.288,2.643,8.293,5.9v79.041C724.18788,418.49035,720.47688,421.13034,715.89888,421.13433Zm-447.838-88.484c-2.747,0-4.973,1.586-4.976,3.54v79.041c0,1.954,2.229,3.538,4.976,3.54h447.838c2.747,0,4.973-1.586,4.976-3.54v-79.039c0-1.954-2.229-3.538-4.976-3.54Z" data-name="Path 78" transform="translate(-177.138 -97.984)" class="colore6e6e6 svgShape"></path><circle cx="137.04" cy="277.695" r="20.036" fill="#e6e6e6" data-name="Ellipse 13" class="colore6e6e6 svgShape"></circle><path fill="#2e8b57" d="M370.68788,359.65533a4.006,4.006,0,0,0-.01037,8.012H559.54884a4.006,4.006,0,0,0,0-8.012Z" data-name="Path 79" transform="translate(-177.138 -97.984)" class="color43b7ff svgShape"></path><path fill="#2e8b57" d="M370.68788,383.69235a4.006,4.006,0,0,0-.01037,8.012h81.27636a4.006,4.006,0,0,0,.01038-8.012H370.68788Z" data-name="Path 80" transform="translate(-177.138 -97.984)" class="color43b7ff svgShape"></path><path fill="#e6e6e6" d="M450.38788,225.65533a4.019,4.019,0,0,0,0,8.012h174.47a4.019,4.019,0,0,0,0-8.012Z" data-name="Path 81" transform="translate(-177.138 -97.984)" class="colore6e6e6 svgShape"></path><path fill="#e6e6e6" d="M451.53583,249.65533c-2.679,0-4.851,1.794-4.851,4.006s2.172,4.006,4.851,4.006h228.7c2.679,0,4.851-1.794,4.851-4.006s-2.172-4.006-4.851-4.006Z" data-name="Path 82" transform="translate(-177.138 -97.984)" class="colore6e6e6 svgShape"></path></g></svg></g></svg>